<?xml version="1.0" encoding="utf-8"?>
<!-- Generator: Adobe Illustrator 25.3.1, SVG Export Plug-In . SVG Version: 6.00 Build 0)  -->
<svg version="1.1" id="Capa_1" xmlns="http://www.w3.org/2000/svg" xmlns:xlink="http://www.w3.org/1999/xlink" x="0px" y="0px"
	 viewBox="0 0 404.2 301.9" style="enable-background:new 0 0 404.2 301.9;" xml:space="preserve">
<style type="text/css">
	.st0{fill:#EBEBEB;}
	.st1{fill:#F8F8F8;}
	.st2{fill:#E50914;}
	.st3{opacity:0.2;fill:#FFFFFF;enable-background:new    ;}
	.st4{opacity:0.1;fill:#FFFFFF;enable-background:new    ;}
	.st5{fill:#E2E1E1;}
	.st6{fill:#FFFFFF;}
	.st7{opacity:0.4;fill:#FFFFFF;enable-background:new    ;}
	.st8{fill:#DBDBDB;}
</style>
<path class="st0" d="M299.1,107.7l-14.8,0.3l-7.5,0.1c-2.5,0-5,0-7.5,0h-0.4v-0.4l0-12.6v-0.5h0.5l15,0.1c5,0,10,0.1,15,0.2h0.3v0.3
	c0,2.1-0.1,4.3-0.1,6.4L299.1,107.7z M299.1,107.7l-0.1-6.4c0-2.1-0.1-4.2-0.1-6.3l0.3,0.3c-5,0-10,0.2-15,0.2l-15,0.1l0.5-0.5v12.6
	l-0.5-0.4c2.5,0,4.9,0,7.4,0.1l7.4,0.1L299.1,107.7z"/>
<path class="st0" d="M282.4,123.7l-14.8,0.3l-7.5,0.1c-2.5,0-5,0-7.5,0h-0.4v-0.4L252,111v-0.5h0.5l14.9,0.1c5,0,10,0.1,15,0.2h0.3
	v0.3c0,2.1-0.1,4.3-0.1,6.4L282.4,123.7z M282.4,123.7l-0.1-6.4c0-2.1-0.1-4.2-0.1-6.3l0.3,0.3c-5,0-10,0.2-15,0.2l-14.9,0.1
	l0.5-0.5l0,12.6l-0.5-0.4c2.5,0,4.9,0,7.4,0.1l7.4,0.1L282.4,123.7z"/>
<path class="st0" d="M265.8,107.7L251,108l-7.5,0.1c-2.5,0-5,0-7.5,0h-0.4v-0.4l-0.1-12.6v-0.5h0.5l15,0.1c5,0,10,0.1,14.9,0.2h0.3
	v0.3c0,2.1-0.1,4.3-0.1,6.4L265.8,107.7z M265.8,107.7l-0.1-6.4c0-2.1-0.1-4.2-0.1-6.3l0.3,0.3c-5,0-10,0.2-14.9,0.2l-15,0.1
	l0.5-0.5l0,12.6l-0.5-0.4c2.5,0,4.9,0,7.4,0.1l7.4,0.1L265.8,107.7z"/>
<path class="st0" d="M353.9,155l5.9-9.5l-2.9-1.8c-0.8-0.5-1.3-1.5-1.2-2.5c0.1-0.6,0.1-1.1,0-1.7c0-1,0.5-1.9,1.4-2.4l3-1.6
	l-5.3-9.8l-3,1.6c-0.9,0.5-2,0.4-2.8-0.2c-0.5-0.3-0.9-0.6-1.4-0.9c-0.9-0.5-1.4-1.4-1.4-2.4l0.1-3.4l-11.2-0.3l-0.1,3.4
	c0,1-0.6,1.9-1.6,2.3l-0.7,0.4c-0.3,0.1-0.5,0.3-0.7,0.4c-0.9,0.5-1.9,0.5-2.8,0l-2.9-1.8l-5.9,9.5l2.9,1.8c0.8,0.5,1.3,1.5,1.2,2.5
	c0,0.6-0.1,1.1-0.1,1.7c0,1-0.5,2-1.4,2.5l-3,1.6l5.3,9.8l3-1.6c0.9-0.5,2-0.4,2.8,0.2c0.5,0.3,0.9,0.6,1.4,0.9
	c0.9,0.5,1.4,1.4,1.4,2.4l-0.1,3.4l11.2,0.3l0.1-3.4c0-1,0.6-1.9,1.5-2.3l0.7-0.4l0.7-0.4c0.9-0.5,1.9-0.5,2.8,0L353.9,155z
	 M344.4,148c-4.5,2.4-10,0.7-12.4-3.8c-2.4-4.5-0.7-10,3.8-12.4c4.5-2.4,10-0.7,12.4,3.7C350.5,140.1,348.9,145.6,344.4,148
	L344.4,148z"/>
<path class="st0" d="M66.7,144.4l5.9-9.5l-2.9-1.8c-0.9-0.5-1.3-1.5-1.2-2.5c0.1-0.6,0.1-1.1,0.1-1.7c0-1,0.5-1.9,1.4-2.4l3-1.6
	l-5.3-9.9l-3,1.6c-0.9,0.5-2,0.4-2.8-0.2c-0.5-0.3-0.9-0.6-1.4-0.9c-0.9-0.5-1.4-1.4-1.4-2.4l0.1-3.4L48,109.4l-0.1,3.4
	c0,1-0.6,1.9-1.5,2.3l-0.7,0.4c-0.2,0.1-0.5,0.3-0.7,0.4c-0.9,0.5-1.9,0.5-2.8,0l-2.9-1.8l-5.9,9.5l2.9,1.8c0.9,0.5,1.3,1.5,1.2,2.5
	c0,0.6,0,1.1,0,1.7c0,1-0.5,1.9-1.4,2.4l-3,1.6l5.2,9.9l3-1.6c0.9-0.5,2-0.4,2.8,0.2c0.5,0.3,0.9,0.6,1.4,0.9
	c0.9,0.5,1.4,1.4,1.4,2.4l-0.1,3.4l11.2,0.4l0.1-3.4c0-1,0.6-1.9,1.6-2.3l0.7-0.4l0.7-0.4c0.9-0.5,1.9-0.5,2.8,0L66.7,144.4z
	 M57.3,137.4c-4.5,2.4-10,0.7-12.4-3.8c-2.4-4.5-0.7-10,3.8-12.4c4.5-2.4,10-0.7,12.4,3.7C63.4,129.4,61.7,134.9,57.3,137.4
	L57.3,137.4z"/>
<path class="st0" d="M41.4,36.9l-3.9-6.8l-2.1,1.2c-0.6,0.4-1.4,0.3-1.9-0.1c-0.3-0.2-0.7-0.4-1-0.6c-0.6-0.3-1-1-1-1.6v-2.4h-7.8
	V29c0,0.7-0.4,1.3-1,1.6c-0.4,0.2-0.7,0.4-1,0.6c-0.6,0.4-1.4,0.4-2,0.1l-2.1-1.2l-3.9,6.8l2.1,1.2c0.6,0.4,1,1,0.9,1.7
	c0,0.2,0,0.4,0,0.6c0,0.2,0,0.4,0,0.6c0,0.7-0.3,1.4-0.9,1.7l-2.1,1.2l3.9,6.8l2.1-1.2c0.6-0.4,1.4-0.3,2,0.1c0.3,0.2,0.7,0.4,1,0.6
	c0.6,0.3,1,1,1,1.7v2.4h7.8v-2.4c0-0.7,0.4-1.3,1-1.7c0.3-0.2,0.7-0.4,1-0.6c0.6-0.4,1.4-0.4,2-0.1l2.1,1.2l3.9-6.8l-2.1-1.2
	c-0.6-0.4-1-1-0.9-1.7c0-0.2,0-0.4,0-0.6s0-0.4,0-0.6c-0.1-0.7,0.3-1.4,0.9-1.7L41.4,36.9z M33.9,40.4c0,3.5-2.9,6.4-6.4,6.4
	c-3.5,0-6.4-2.9-6.4-6.4c0-3.5,2.9-6.4,6.4-6.4c0,0,0,0,0,0C31.1,34,33.9,36.9,33.9,40.4C33.9,40.4,33.9,40.4,33.9,40.4z"/>
<g id="Robot">
	<rect x="186.7" y="150.9" class="st1" width="35.5" height="2.9"/>
	<rect x="186.7" y="154.7" class="st1" width="35.5" height="2.9"/>
	<rect x="186.7" y="158.5" class="st1" width="35.5" height="2.9"/>
	<rect x="186.7" y="162.3" class="st1" width="35.5" height="2.9"/>
	<rect x="186.7" y="166.1" class="st1" width="35.5" height="2.9"/>
	<rect x="170" y="241.7" class="st1" width="67.5" height="2.9"/>
	<rect x="170" y="245.4" class="st1" width="67.5" height="2.9"/>
	<rect x="170" y="249.2" class="st1" width="67.5" height="2.9"/>
	<rect x="170" y="253" class="st1" width="67.5" height="2.9"/>
	<rect x="170" y="256.8" class="st1" width="67.5" height="2.9"/>
	<path class="st2" d="M140.4,126.9c0-0.4-14.8-5.4-14.8-5.4l0.9-50.9l19.6-4.2L140.4,126.9z"/>
	<path class="st3" d="M140.4,126.9c0-0.4-14.8-5.4-14.8-5.4l0.9-50.9l19.6-4.2L140.4,126.9z"/>
	<path class="st2" d="M276.1,146.8c0.1-0.4,15.7,0,15.7,0l16.7-48.1l-17-10.7L276.1,146.8z"/>
	<path class="st3" d="M276.1,146.8c0.1-0.4,15.7,0,15.7,0l16.7-48.1l-17-10.7L276.1,146.8z"/>
	<path class="st2" d="M137.6,145.6c0,0,5.5-82.3,10.4-109.4c0,0,99.4,7.5,153.1,28c0,0-27.7,96.1-29.1,100.9
		C271.9,165.2,201.8,151.4,137.6,145.6z"/>
	<path class="st4" d="M226.3,47.2c-1.6,9.9-3.3,19.8-4.9,29.7l-5.1,29.7l-0.3-0.4l33.3,7.9l16.6,4l16.6,4.1l-16.7-3.7l-16.7-3.8
		l-33.3-7.8l-0.3-0.1l0.1-0.3l5.3-29.7C222.6,67,224.4,57.1,226.3,47.2z"/>
	<path class="st4" d="M222.6,52.9c0,1.1-0.9,1.9-1.9,1.9c-0.5,0-0.9-0.2-1.3-0.5c-0.8-0.7-0.9-1.9-0.2-2.7c0.4-0.5,1-0.7,1.7-0.7
		C221.9,51,222.6,51.9,222.6,52.9z M222.6,52.9c0-0.9-0.7-1.6-1.5-1.6c-0.1,0-0.1,0-0.2,0c-0.9,0.1-1.5,0.9-1.4,1.7
		c0.1,0.7,0.7,1.3,1.4,1.4c0.4,0,0.9-0.1,1.2-0.4C222.4,53.8,222.6,53.3,222.6,52.9z"/>
	<path class="st4" d="M220.9,65.1c0.1,1.1-0.7,2-1.8,2.1c-1.1,0.1-2-0.7-2.1-1.8c0-0.1,0-0.2,0-0.3c0-0.6,0.2-1.1,0.7-1.5
		c0.8-0.7,2-0.6,2.7,0.2C220.7,64.2,220.9,64.6,220.9,65.1L220.9,65.1z M220.9,65.1c0-0.5-0.2-0.9-0.6-1.2c-0.3-0.3-0.8-0.4-1.2-0.4
		c-0.9,0.1-1.5,0.9-1.4,1.7c0.1,0.9,0.9,1.5,1.7,1.4c0.3,0,0.6-0.2,0.8-0.4C220.7,66,220.9,65.6,220.9,65.1z"/>
	<path class="st4" d="M218.8,78c0,1.1-0.9,1.9-1.9,1.9c-1.1,0-1.9-0.9-1.9-1.9c0-1.1,0.9-1.9,1.9-1.9c0.1,0,0.1,0,0.2,0
		C218,76.2,218.8,77,218.8,78z M218.8,78c0-0.5-0.2-0.9-0.6-1.2c-0.3-0.3-0.8-0.4-1.2-0.4c-0.9,0.1-1.5,0.9-1.4,1.7
		c0.1,0.9,0.9,1.5,1.7,1.4c0.3,0,0.6-0.2,0.8-0.4C218.5,78.9,218.7,78.5,218.8,78z"/>
	<path class="st4" d="M216.6,91c0,1.1-0.9,1.9-1.9,1.9c-0.5,0-0.9-0.2-1.3-0.5c-0.4-0.4-0.7-0.9-0.7-1.5c-0.1-1.1,0.7-2,1.8-2.1
		c1.1-0.1,2,0.7,2.1,1.8C216.6,90.8,216.6,90.9,216.6,91L216.6,91z M216.6,91c0-0.5-0.2-0.9-0.6-1.2c-0.3-0.3-0.8-0.4-1.2-0.4
		c-0.9,0.1-1.5,0.9-1.4,1.7c0.1,0.7,0.7,1.3,1.4,1.4c0.4,0,0.9-0.1,1.2-0.4C216.4,91.9,216.6,91.4,216.6,91z"/>
	<path class="st4" d="M223.9,111.6c0,1-0.7,1.8-1.7,1.9c-0.5,0-1.1-0.1-1.5-0.5c-0.8-0.7-0.9-1.9-0.2-2.7c0.4-0.5,1-0.7,1.7-0.7
		C223.2,109.8,223.9,110.6,223.9,111.6z M223.9,111.6c0-0.9-0.7-1.6-1.6-1.5s-1.6,0.7-1.5,1.6c0,0.8,0.6,1.4,1.4,1.5
		c0.8,0.1,1.6-0.5,1.7-1.3C223.9,111.8,223.9,111.7,223.9,111.6z"/>
	<path class="st4" d="M236.1,114.6c0,1-0.8,1.8-1.8,1.9c-0.5,0-1.1-0.1-1.5-0.5c-0.8-0.8-0.9-2-0.1-2.8c0,0,0.1-0.1,0.1-0.1
		c0.8-0.7,2-0.6,2.7,0.2C236,113.7,236.1,114.1,236.1,114.6L236.1,114.6z M236.1,114.6c0-0.5-0.2-0.9-0.5-1.2
		c-0.7-0.6-1.7-0.5-2.2,0.2c-0.6,0.7-0.5,1.7,0.2,2.2c0.6,0.5,1.4,0.5,2,0C235.9,115.5,236.1,115.1,236.1,114.6z"/>
	<path class="st4" d="M248.4,117.6c0,1-0.8,1.8-1.8,1.9c-0.5,0-1.1-0.1-1.5-0.5c-0.4-0.4-0.7-0.9-0.7-1.5c0-0.6,0.2-1.1,0.7-1.5
		c0.8-0.7,2-0.6,2.7,0.2C248.2,116.7,248.4,117.1,248.4,117.6z M248.4,117.6c0-0.9-0.7-1.6-1.6-1.5c-0.9,0-1.6,0.7-1.5,1.6
		c0,0.9,0.7,1.6,1.6,1.5c0.4,0,0.7-0.1,1-0.4C248.2,118.5,248.4,118,248.4,117.6z"/>
	<path class="st4" d="M260.6,120.6c0,1.1-0.9,1.9-1.9,1.9c-1.1,0-1.9-0.9-1.9-1.9c0,0,0,0,0,0c0-1.1,0.8-1.9,1.9-1.9
		c0.1,0,0.1,0,0.2,0C259.8,118.7,260.6,119.6,260.6,120.6z M260.6,120.6c0-0.5-0.2-0.9-0.5-1.2c-0.3-0.3-0.8-0.4-1.2-0.4
		c-0.9,0.1-1.5,0.9-1.4,1.7c0.1,0.7,0.7,1.3,1.4,1.4c0.8,0.1,1.6-0.5,1.7-1.3C260.6,120.7,260.6,120.6,260.6,120.6L260.6,120.6z"/>
	<path class="st4" d="M272.8,123.7c-0.1,1-0.9,1.8-1.9,1.8c-1.1,0-2-0.8-2-1.8c0-0.1,0-0.2,0-0.3c0.1-1.1,1-1.9,2.1-1.8
		C272,121.7,272.8,122.7,272.8,123.7L272.8,123.7z M272.8,123.7c0.1-0.9-0.6-1.6-1.4-1.7s-1.6,0.6-1.7,1.4c-0.1,0.8,0.5,1.5,1.3,1.6
		c0.4,0.1,0.9,0,1.2-0.3C272.5,124.6,272.7,124.2,272.8,123.7z"/>
	<path class="st4" d="M214.5,103.9c0,1.1-0.9,1.9-1.9,1.9c-0.5,0-0.9-0.2-1.3-0.5c-0.8-0.8-0.9-2-0.1-2.8c0,0,0.1-0.1,0.1-0.1
		c0.4-0.3,0.9-0.5,1.5-0.5C213.7,102.1,214.4,102.9,214.5,103.9z M214.5,103.9c0-0.5-0.2-0.9-0.5-1.2c-0.7-0.6-1.7-0.5-2.2,0.2
		s-0.5,1.7,0.2,2.2c0.2,0.2,0.5,0.3,0.8,0.4c0.4,0,0.9-0.1,1.2-0.4C214.3,104.8,214.4,104.4,214.5,103.9z"/>
	<circle class="st3" cx="175" cy="104.4" r="28.2"/>
	<circle class="st5" cx="175" cy="104.4" r="22.6"/>
	
		<rect x="167.9" y="95.6" transform="matrix(0.1599 -0.9871 0.9871 0.1599 46.2989 250.9341)" class="st2" width="5.4" height="5.4"/>
	
		<rect x="163.5" y="89.4" transform="matrix(0.1599 -0.9871 0.9871 0.1599 48.6475 241.3953)" class="st2" width="5.4" height="5.4"/>
	
		<rect x="184.6" y="92.9" transform="matrix(0.1599 -0.9871 0.9871 0.1599 63.0458 265.1743)" class="st2" width="5.4" height="5.4"/>
	
		<rect x="160.1" y="110.5" transform="matrix(0.1599 -0.9871 0.9871 0.1599 24.9981 255.7154)" class="st2" width="5.4" height="5.4"/>
	
		<rect x="181.2" y="113.9" transform="matrix(0.1599 -0.9871 0.9871 0.1599 39.4063 279.4861)" class="st2" width="5.4" height="5.4"/>
	
		<rect x="166.2" y="106.1" transform="matrix(0.1599 -0.9871 0.9871 0.1599 34.5369 258.064)" class="st2" width="5.4" height="5.4"/>
	
		<rect x="172.3" y="101.7" transform="matrix(0.1599 -0.9871 0.9871 0.1599 44.0219 260.4449)" class="st2" width="5.4" height="5.4"/>
	
		<rect x="178.5" y="97.3" transform="matrix(0.1599 -0.9871 0.9871 0.1599 53.4959 262.8325)" class="st2" width="5.4" height="5.4"/>
	
		<rect x="176.8" y="107.8" transform="matrix(0.1599 -0.9871 0.9871 0.1599 41.7565 269.9461)" class="st2" width="5.4" height="5.4"/>
	
		<ellipse transform="matrix(0.7071 -0.7071 0.7071 0.7071 -8.7048 211.3436)" class="st2" cx="250.8" cy="116.2" rx="28.2" ry="28.2"/>
	
		<ellipse transform="matrix(0.7071 -0.7071 0.7071 0.7071 -8.7048 211.3436)" class="st3" cx="250.8" cy="116.2" rx="28.2" ry="28.2"/>
	<path class="st3" d="M278.2,122.7c-0.1,0.6-0.3,1.1-0.5,1.6l-55-11.7c0.1-1,0.3-2,0.5-3c4.1-15.1,19.6-23.9,34.7-19.9
		C272.4,93.7,281.3,108.1,278.2,122.7z"/>
	
		<ellipse transform="matrix(0.9227 -0.3856 0.3856 0.9227 -25.4028 105.6797)" class="st5" cx="250.8" cy="116.2" rx="22.6" ry="22.6"/>
	
		<rect x="237.4" y="113.5" transform="matrix(0.2312 -0.9729 0.9729 0.2312 79.7299 333.3017)" class="st2" width="26.7" height="5.4"/>
	<path class="st2" d="M279.9,122.2l-57.8-13.7c3.9-15.9,20-25.7,35.9-21.8C273.8,90.6,283.5,106.4,279.9,122.2z"/>
	<path class="st3" d="M279.9,122.2l-57.8-13.7c3.9-15.9,20-25.7,35.9-21.8C273.8,90.6,283.5,106.4,279.9,122.2z"/>
	<path class="st4" d="M201.7,133c0.1-2.4,1-4.6,2.6-6.4c0.8-0.9,1.9-1.6,3.1-2.1c1.2-0.4,2.5-0.5,3.7-0.4c2.6,0.2,4.8,1.9,5.8,4.3
		c0.9,2.2,1.1,4.6,0.6,6.8c-0.3-2.1-1-4.2-2-6.1c-0.9-1.7-2.7-2.9-4.6-3.1c-2-0.3-4,0.3-5.5,1.6C203.7,129.2,202.5,131,201.7,133z"
		/>
	<path class="st6" d="M145.3,75.4c0.2-3,0.6-6,0.9-9c0.3-3,0.6-6,1-9s0.7-6,1.1-9s0.8-6,1.2-9l0.1-0.8l0.8,0.1
		c6.5,0.4,13,0.9,19.5,1.6c3.3,0.3,6.5,0.7,9.7,1.1c3.2,0.5,6.5,0.9,9.7,1.5l-19.5-1.2l-19.5-1.3l0.9-0.8c-0.4,3-0.9,6-1.3,9
		s-0.9,6-1.4,9s-1,6-1.5,8.9C146.5,69.5,145.9,72.4,145.3,75.4z"/>
	<path class="st6" d="M150,98.2c0.7-3.7,2.3-7.1,4.5-10.1c0.6-0.8,1.2-1.5,1.8-2.2s1.3-1.3,2-2s1.5-1.2,2.2-1.8s1.6-1,2.4-1.5
		s1.7-0.8,2.6-1.2l2.7-0.9l2.8-0.6c0.9-0.1,1.9-0.2,2.8-0.2c3.7-0.1,7.4,0.6,10.9,2.1c-3.5-0.7-7.2-1-10.8-0.7
		c-3.5,0.3-7,1.4-10.1,3.1c-3.1,1.7-5.9,4-8.2,6.8C153.2,91.7,151.3,94.8,150,98.2z"/>
	<path class="st6" d="M227.9,105.8c1.2-3.5,3.2-6.7,5.9-9.4c0.6-0.7,1.4-1.3,2.1-1.9s1.5-1.1,2.3-1.7s1.6-1,2.4-1.4s1.7-0.8,2.6-1.2
		s1.8-0.6,2.7-0.9l2.8-0.6l2.8-0.2c0.9,0,1.9,0.1,2.8,0.2c3.7,0.5,7.3,1.7,10.5,3.6c-3.4-1.2-7-2-10.6-2.2
		c-3.6-0.2-7.1,0.4-10.4,1.7c-3.3,1.3-6.4,3.2-9,5.6C232,99.9,229.7,102.7,227.9,105.8z"/>
	<path class="st2" d="M140.7,196.3c-7.2,0-23.1-1.6-33.3-14.7c-13-16.8-8.3-48.9-8.1-50.3l5.7,0.9c0,0.3-4.6,31.1,7,45.9
		c11.3,14.5,31.7,12.4,31.9,12.4l0.6,5.7C143.3,196.3,142,196.3,140.7,196.3z"/>
	<path class="st7" d="M140.7,196.3c-7.2,0-23.1-1.6-33.3-14.7c-13-16.8-8.3-48.9-8.1-50.3l5.7,0.9c0,0.3-4.6,31.1,7,45.9
		c11.3,14.5,31.7,12.4,31.9,12.4l0.6,5.7C143.3,196.3,142,196.3,140.7,196.3z"/>
	<path class="st2" d="M106.7,136.1c-1.1,0-2.1-0.1-3.1-0.3c-9.6-1.6-13.8-7.3-15.6-11.8c-1.9-4.5-2.3-10-1.3-16.3l12.1,2
		c-0.6,3.9-0.4,7.3,0.5,9.6c0.7,1.7,2,3.7,6.3,4.4c1.9,0.3,4,0.1,6.2-3.2c1.5-2.5,2.6-5.3,3.1-8.2l12.1,2c-0.8,4.6-2.5,9.1-5,13.1
		C118.1,133,112.8,136.1,106.7,136.1z"/>
	<path class="st2" d="M152.7,212.7c0-0.3-10.3-1.9-10.3-1.9l-5-33.4l12.4-4.9L152.7,212.7z"/>
	<path class="st3" d="M152.7,212.7c0-0.3-10.3-1.9-10.3-1.9l-5-33.4l12.4-4.9L152.7,212.7z"/>
	<path class="st2" d="M253.9,212.7c0-0.3,10.3-1.7,10.3-1.7l5.7-33.3l-12.3-5.2L253.9,212.7z"/>
	<path class="st3" d="M253.9,212.7c0-0.3,10.3-1.7,10.3-1.7l5.7-33.3l-12.3-5.2L253.9,212.7z"/>
	<path class="st2" d="M148.4,165c0,0,82.8-3.5,110.8,1.1c0,0-8.2,80.1-8.7,81.7c0,0-82.4-0.2-95.2,0
		C155.3,247.8,148.3,194.5,148.4,165z"/>
	<path class="st3" d="M173.6,187c0,0,45.2-1.8,60.5,0.6c0,0-4.5,40.4-4.7,41.2c0,0-45-0.1-52,0C177.3,228.7,174.2,201.1,173.6,187z"
		/>
	<path class="st3" d="M179.7,228.7h-2.4c0,0-3.1-27.6-3.8-41.7l2.8-0.1L179.7,228.7z"/>
	<path class="st2" d="M193.1,196.9c-2.5-0.8-5.2,0.6-6,3.1c-0.8,2.5,0.6,5.2,3.1,6s5.2-0.6,6-3.1c0,0,0,0,0,0
		C197,200.4,195.6,197.7,193.1,196.9z M195.7,202.8c-0.7,2.2-3.1,3.5-5.3,2.8c-2.2-0.7-3.5-3.1-2.8-5.3c0.7-2.2,3.1-3.5,5.3-2.8
		c0,0,0,0,0,0C195.1,198.2,196.4,200.6,195.7,202.8L195.7,202.8z M193.1,196.9c-2.5-0.8-5.2,0.6-6,3.1c-0.8,2.5,0.6,5.2,3.1,6
		s5.2-0.6,6-3.1c0,0,0,0,0,0C197,200.4,195.6,197.7,193.1,196.9z M195.7,202.8c-0.7,2.2-3.1,3.5-5.3,2.8c-2.2-0.7-3.5-3.1-2.8-5.3
		c0.7-2.2,3.1-3.5,5.3-2.8c0,0,0,0,0,0C195.1,198.2,196.4,200.6,195.7,202.8L195.7,202.8z M193.1,196.9c-2.5-0.8-5.2,0.6-6,3.1
		c-0.8,2.5,0.6,5.2,3.1,6s5.2-0.6,6-3.1c0,0,0,0,0,0C197,200.4,195.6,197.7,193.1,196.9z M195.7,202.8c-0.7,2.2-3.1,3.5-5.3,2.8
		c-2.2-0.7-3.5-3.1-2.8-5.3c0.7-2.2,3.1-3.5,5.3-2.8c0,0,0,0,0,0C195.1,198.2,196.4,200.6,195.7,202.8L195.7,202.8z M194.7,191.9
		c-5.3-1.7-11,1.3-12.7,6.6c-1.7,5.3,1.3,11,6.6,12.7c5.3,1.7,11-1.3,12.7-6.6C203,199.2,200,193.5,194.7,191.9L194.7,191.9z
		 M196.9,203.2c-0.9,2.9-4.1,4.5-7,3.6s-4.5-4.1-3.6-7c0.9-2.9,4-4.5,6.9-3.6C196.2,197.1,197.8,200.2,196.9,203.2
		C196.9,203.2,196.9,203.2,196.9,203.2z M196.2,203c0.8-2.5-0.6-5.2-3.1-6c-2.5-0.8-5.2,0.6-6,3.1s0.6,5.2,3.1,6c0,0,0,0,0,0
		C192.7,206.9,195.4,205.5,196.2,203L196.2,203z M195.6,202.8c-0.7,2.2-3.1,3.5-5.3,2.8c-2.2-0.7-3.5-3.1-2.8-5.3
		c0.7-2.2,3.1-3.5,5.3-2.8c0,0,0,0,0,0C195.1,198.2,196.4,200.6,195.6,202.8L195.6,202.8z M193.1,196.9c-2.5-0.8-5.2,0.6-6,3.1
		c-0.8,2.5,0.6,5.2,3.1,6s5.2-0.6,6-3.1c0,0,0,0,0,0C197,200.4,195.6,197.7,193.1,196.9L193.1,196.9z M195.6,202.8
		c-0.7,2.2-3.1,3.5-5.3,2.8c-2.2-0.7-3.5-3.1-2.8-5.3c0.7-2.2,3.1-3.5,5.3-2.8c0,0,0,0,0,0C195.1,198.2,196.4,200.6,195.6,202.8
		L195.6,202.8z M193.1,196.9c-2.5-0.8-5.2,0.6-6,3.1c-0.8,2.5,0.6,5.2,3.1,6s5.2-0.6,6-3.1c0,0,0,0,0,0
		C197,200.4,195.6,197.7,193.1,196.9L193.1,196.9z M195.6,202.8c-0.7,2.2-3.1,3.5-5.3,2.8c-2.2-0.7-3.5-3.1-2.8-5.3
		c0.7-2.2,3.1-3.5,5.3-2.8c0,0,0,0,0,0C195.1,198.2,196.4,200.6,195.6,202.8L195.6,202.8z"/>
	<polygon class="st2" points="190.6,211.4 186.9,210.2 186.2,212.9 189.5,213.9 	"/>
	<polygon class="st2" points="183.9,207.9 182.1,204.4 179.7,205.9 181.3,209 	"/>
	<polygon class="st2" points="181.6,200.7 182.8,197 180.1,196.4 179.1,199.7 	"/>
	<polygon class="st2" points="185.1,194 188.6,192.2 187.1,189.9 184,191.5 	"/>
	<polygon class="st2" points="192.3,191.8 196,192.9 196.6,190.2 193.3,189.2 	"/>
	<polygon class="st2" points="199,195.2 200.8,198.7 203.1,197.2 201.5,194.2 	"/>
	<polygon class="st2" points="201.2,202.4 200.1,206.1 202.8,206.8 203.8,203.5 	"/>
	<polygon class="st2" points="197.8,209.1 194.3,210.9 195.8,213.2 198.8,211.6 	"/>
	<path class="st8" d="M209.4,211.1c-1.5-1-3.5-0.5-4.5,1s-0.5,3.5,1,4.5c1.5,1,3.5,0.5,4.5-0.9C211.3,214,210.9,212,209.4,211.1
		C209.4,211.1,209.4,211.1,209.4,211.1z M210,215.3c-0.9,1.3-2.6,1.7-3.9,0.8s-1.7-2.6-0.8-3.9c0.9-1.3,2.6-1.7,3.9-0.8
		C210.5,212.3,210.9,214,210,215.3L210,215.3z M209.4,211.1c-1.5-1-3.5-0.5-4.5,1s-0.5,3.5,1,4.5c1.5,1,3.5,0.5,4.5-0.9
		C211.3,214,210.9,212,209.4,211.1C209.4,211.1,209.4,211.1,209.4,211.1z M210,215.3c-0.9,1.3-2.6,1.7-3.9,0.8s-1.7-2.6-0.8-3.9
		c0.9-1.3,2.6-1.7,3.9-0.8C210.5,212.3,210.9,214,210,215.3L210,215.3z M209.4,211.1c-1.5-1-3.5-0.5-4.5,1s-0.5,3.5,1,4.5
		c1.5,1,3.5,0.5,4.5-0.9C211.3,214,210.9,212,209.4,211.1C209.4,211.1,209.4,211.1,209.4,211.1z M210,215.3
		c-0.9,1.3-2.6,1.7-3.9,0.8s-1.7-2.6-0.8-3.9c0.9-1.3,2.6-1.7,3.9-0.8C210.5,212.3,210.9,214,210,215.3L210,215.3z M211.4,208.1
		c-3.2-2.1-7.4-1.2-9.4,2c-2.1,3.2-1.2,7.4,2,9.4c3.2,2.1,7.4,1.2,9.4-2C215.4,214.3,214.5,210.1,211.4,208.1L211.4,208.1z
		 M210.8,215.8c-1.1,1.7-3.4,2.2-5.2,1.1c-1.7-1.1-2.2-3.4-1.1-5.2s3.4-2.2,5.2-1.1c0,0,0,0,0,0
		C211.4,211.8,211.9,214.1,210.8,215.8C210.8,215.8,210.8,215.8,210.8,215.8L210.8,215.8z M210.4,215.5c1-1.5,0.6-3.5-0.9-4.5
		s-3.5-0.6-4.5,0.9c-1,1.5-0.6,3.5,0.9,4.5c0,0,0,0,0,0C207.4,217.5,209.4,217.1,210.4,215.5C210.4,215.6,210.4,215.5,210.4,215.5
		L210.4,215.5z M210,215.3c-0.9,1.3-2.6,1.7-3.9,0.8s-1.7-2.6-0.8-3.9c0.9-1.3,2.6-1.7,3.9-0.8C210.5,212.3,210.9,214,210,215.3
		L210,215.3z M209.4,211.1c-1.5-1-3.5-0.5-4.5,1s-0.5,3.5,1,4.5c1.5,1,3.5,0.5,4.5-0.9C211.3,214,210.9,212,209.4,211.1
		C209.4,211.1,209.4,211.1,209.4,211.1L209.4,211.1z M210,215.3c-0.9,1.3-2.6,1.7-3.9,0.8s-1.7-2.6-0.8-3.9c0.9-1.3,2.6-1.7,3.9-0.8
		C210.5,212.3,210.9,214,210,215.3L210,215.3z M209.4,211.1c-1.5-1-3.5-0.5-4.5,1s-0.5,3.5,1,4.5c1.5,1,3.5,0.5,4.5-0.9
		C211.3,214,210.9,212,209.4,211.1C209.4,211.1,209.4,211.1,209.4,211.1L209.4,211.1z M210,215.3c-0.9,1.3-2.6,1.7-3.9,0.8
		s-1.7-2.6-0.8-3.9c0.9-1.3,2.6-1.7,3.9-0.8C210.5,212.3,210.9,214,210,215.3L210,215.3z"/>
	<polygon class="st8" points="205.2,220 203,218.5 202.1,220.2 204,221.5 	"/>
	<polygon class="st8" points="201.5,216.5 200.9,213.9 199.2,214.5 199.6,216.8 	"/>
	<polygon class="st8" points="201.3,211.4 202.7,209.2 201.1,208.4 199.8,210.3 	"/>
	<polygon class="st8" points="204.8,207.7 207.3,207.2 206.8,205.4 204.5,205.9 	"/>
	<polygon class="st8" points="209.8,207.6 212,209 212.9,207.4 211,206.1 	"/>
	<polygon class="st8" points="213.5,211 214.1,213.6 215.9,213.1 215.4,210.8 	"/>
	<polygon class="st8" points="213.7,216.1 212.3,218.3 213.9,219.2 215.2,217.2 	"/>
	<polygon class="st8" points="210.2,219.8 207.7,220.4 208.2,222.1 210.5,221.7 	"/>
	<polygon class="st2" points="257.2,238.5 260.4,239.1 269.5,177.4 265.8,176.8 	"/>
	<path class="st2" d="M229.3,228.7l4.7-41.2l31.8-10.8c0,0-8.7,62.4-8.7,61.7L229.3,228.7z"/>
	<path class="st7" d="M229.3,228.7l4.7-41.2l31.8-10.8c0,0-8.7,62.4-8.7,61.7L229.3,228.7z"/>
	<path class="st6" d="M152.2,189.2c-0.5-3.4-0.8-6.9-1-10.3c-0.1-1.7-0.1-3.4-0.2-5.2s-0.1-3.4,0-5.2v-0.5h0.4
		c6.3-0.3,12.6-0.8,18.9-1s12.6-0.6,19-0.8c-6.3,0.6-12.6,1.1-18.9,1.5s-12.6,0.9-18.9,1.3l0.4-0.5v5.1l0.1,5.1c0,1.7,0,3.4,0.1,5.2
		L152.2,189.2z"/>
	<path class="st6" d="M238.5,188.1c2-0.9,4-1.8,6-2.6c2-0.8,4-1.6,6.1-2.3s4.1-1.4,6.2-2c2.1-0.6,4.2-1.1,6.4-1.5l0.5-0.1l-0.1,0.5
		c-0.5,2.7-1,5.3-1.6,8c0.2-2.7,0.6-5.4,0.9-8.1l0.4,0.4c-2.1,0.5-4.2,1.1-6.3,1.7c-2.1,0.6-4.1,1.3-6.2,1.9L238.5,188.1z"/>
	<polygon class="st4" points="166,165.2 166.5,175.5 167,185.8 167.8,206.4 168.4,227 168.6,237.3 168.8,247.6 168.3,237.3 
		167.8,227 167,206.4 166.4,185.8 166.2,175.5 	"/>
	<path class="st4" d="M163,171.4c0.2,1-0.4,1.9-1.3,2.2c-1,0.3-2.1-0.3-2.4-1.3c-0.2-0.6-0.1-1.2,0.3-1.7c0.3-0.4,0.8-0.7,1.3-0.8
		C161.9,169.8,162.8,170.4,163,171.4z M163,171.4c-0.1-0.4-0.4-0.8-0.8-1.1c-0.4-0.2-0.8-0.2-1.3-0.1c-0.8,0.3-1.3,1.1-1,2
		c0.2,0.7,0.9,1.2,1.6,1.1c0.4,0,0.8-0.3,1.1-0.6C163,172.3,163.1,171.8,163,171.4z"/>
	<path class="st4" d="M163.7,183.7c0.2,1-0.4,1.9-1.3,2.2c-1,0.3-2.1-0.3-2.4-1.4c-0.2-0.6,0-1.2,0.3-1.6c0.3-0.4,0.8-0.7,1.4-0.8
		C162.6,182.1,163.5,182.8,163.7,183.7z M163.7,183.7c-0.1-0.4-0.4-0.8-0.8-1.1c-0.4-0.2-0.8-0.3-1.2-0.1c-0.8,0.3-1.3,1.1-1,2
		c0.2,0.7,0.9,1.2,1.6,1.1c0.4,0,0.8-0.3,1.1-0.6C163.7,184.6,163.8,184.2,163.7,183.7z"/>
	<path class="st4" d="M164.2,196.8c0.2,1-0.4,1.9-1.3,2.2c-1,0.3-2.1-0.3-2.4-1.3c-0.3-1,0.3-2.1,1.3-2.4c1-0.3,2.1,0.3,2.4,1.3
		C164.2,196.7,164.2,196.8,164.2,196.8z M164.2,196.8c-0.1-0.4-0.4-0.8-0.8-1.1c-0.4-0.2-0.8-0.3-1.2-0.1c-0.8,0.3-1.3,1.2-1,2
		c0.2,0.7,0.9,1.1,1.6,1.1c0.4,0,0.8-0.2,1.1-0.6C164.2,197.8,164.3,197.3,164.2,196.8z"/>
	<path class="st4" d="M164.6,210c0.2,1.1-0.5,2.1-1.5,2.3c-0.5,0.1-0.9,0-1.3-0.2c-0.9-0.5-1.3-1.7-0.7-2.6c0.3-0.6,0.9-0.9,1.5-1
		C163.5,208.3,164.4,209,164.6,210z M164.6,210c-0.1-0.5-0.4-0.8-0.8-1.1c-0.8-0.4-1.7-0.1-2.1,0.6c-0.2,0.3-0.2,0.7-0.2,1
		c0.2,0.8,0.9,1.3,1.7,1.3c0.4,0,0.8-0.3,1.1-0.6C164.6,210.9,164.7,210.4,164.6,210z"/>
	<path class="st4" d="M165.1,223.1c0.2,1-0.4,1.9-1.3,2.2c-0.5,0.1-1.1,0.1-1.5-0.2c-0.9-0.6-1.2-1.8-0.7-2.8c0,0,0.1-0.1,0.1-0.1
		c0.7-0.8,1.9-1,2.7-0.4C164.7,222.2,165,222.6,165.1,223.1L165.1,223.1z M165.1,223.1c-0.1-0.5-0.4-0.8-0.8-1.1
		c-0.4-0.2-0.8-0.2-1.2-0.1c-0.8,0.4-1.1,1.3-0.8,2.1c0.3,0.6,0.8,0.9,1.4,0.9c0.4,0,0.8-0.3,1.1-0.6
		C165.1,223.9,165.2,223.5,165.1,223.1z"/>
	<path class="st4" d="M165.5,236.2c0.2,1-0.4,1.9-1.3,2.2c-0.5,0.1-1.1,0.1-1.5-0.2c-0.9-0.6-1.2-1.8-0.7-2.8c0,0,0-0.1,0.1-0.1
		c0.7-0.8,1.9-1,2.7-0.4C165.2,235.3,165.5,235.7,165.5,236.2z M165.5,236.2c-0.1-0.5-0.4-0.8-0.8-1.1c-0.4-0.2-0.8-0.2-1.2-0.1
		c-0.8,0.3-1.3,1.1-1,2c0.2,0.7,0.9,1.2,1.6,1.1c0.4,0,0.8-0.3,1.1-0.6C165.5,237.1,165.6,236.6,165.5,236.2z"/>
	<rect x="122.5" y="263.2" transform="matrix(0.957 -0.29 0.29 0.957 -70.8474 54.0708)" class="st2" width="49" height="5.7"/>
	<rect x="122.5" y="263.2" transform="matrix(0.957 -0.29 0.29 0.957 -70.8474 54.0708)" class="st7" width="49" height="5.7"/>
	<rect x="142.8" y="261.8" transform="matrix(0.953 -0.303 0.303 0.953 -73.7791 56.6614)" class="st2" width="5.7" height="8.5"/>
	<polygon class="st2" points="124,283.9 111.9,231.5 75.4,240.2 93.4,291.2 	"/>
	<polygon class="st2" points="132.1,281.3 124,283.9 111.9,231.5 123.6,234.3 	"/>
	<polygon class="st3" points="132.1,281.3 124,283.9 111.9,231.5 123.6,234.3 	"/>
	<circle class="st2" cx="170.4" cy="259" r="6.2"/>
	
		<rect x="254.1" y="241.5" transform="matrix(0.292 -0.9564 0.9564 0.292 -72.4334 434.0633)" class="st2" width="5.7" height="49"/>
	
		<rect x="254.1" y="241.5" transform="matrix(0.292 -0.9564 0.9564 0.292 -72.4334 434.0633)" class="st7" width="5.7" height="49"/>
	
		<rect x="254" y="263.1" transform="matrix(0.3052 -0.9523 0.9523 0.3052 -73.8165 430.7329)" class="st2" width="8.5" height="5.7"/>
	<polygon class="st2" points="279.9,283.9 292.1,231.5 328.6,240.3 310.6,291.3 	"/>
	<polygon class="st2" points="271.8,281.2 279.9,283.9 292.1,231.5 280.5,234.3 	"/>
	<polygon class="st3" points="271.8,281.2 279.9,283.9 292.1,231.5 280.5,234.3 	"/>
	<path class="st2" d="M227.3,258.8c0,3.4,2.8,6.2,6.2,6.2c3.4,0,6.2-2.8,6.2-6.2c0-3.4-2.8-6.2-6.2-6.2c0,0,0,0,0,0
		C230.1,252.6,227.4,255.4,227.3,258.8z"/>
	<path class="st2" d="M274.2,194.2c0.1-0.1,15.2-14.1,32.9-9.3c18.1,4.9,33.1,32.2,33.2,32.4l5-2.7c-0.6-1.2-16.3-29.7-36.8-35.3
		c-20.9-5.6-37.6,10-38.3,10.7L274.2,194.2z"/>
	<path class="st7" d="M274.2,194.2c0.1-0.1,15.2-14.1,32.9-9.3c18.1,4.9,33.1,32.2,33.2,32.4l5-2.7c-0.6-1.2-16.3-29.7-36.8-35.3
		c-20.9-5.6-37.6,10-38.3,10.7L274.2,194.2z"/>
	<path class="st2" d="M333.7,244.8l10.9-5.7c-1.4-2.6-2.2-5.5-2.5-8.4c-0.2-4,1.3-5.4,3.1-6.3c3.8-2,6.1-1.2,7.6-0.3
		c2.2,1.3,4.4,3.9,6.2,7.4l10.8-5.7c-3-5.6-6.6-9.7-10.8-12.2s-11-4.5-19.6,0c-6.7,3.5-10.1,9.9-9.6,17.9
		C330.2,236.1,331.5,240.6,333.7,244.8z"/>
	<path class="st5" d="M276.5,175.1c2.4-1.6,4.8-3.2,7.2-4.7s4.9-3,7.3-4.4s4.9-2.9,7.4-4.2l3.8-2.1c1.3-0.6,2.5-1.3,3.8-1.9
		c-1.2,0.8-2.4,1.6-3.6,2.4l-3.6,2.3c-2.4,1.5-4.9,3-7.3,4.4s-4.9,2.9-7.4,4.2S279.1,173.8,276.5,175.1z"/>
	<path class="st5" d="M270.3,198.5c3.4,1.9,6.5,4.1,9.7,6.3s6.2,4.6,9.1,7.1c-3.4-1.9-6.6-4.1-9.7-6.3S273.2,201,270.3,198.5z"/>
	<path class="st5" d="M275.8,195.6c2.6,0.8,5.1,1.7,7.7,2.6s5.1,1.9,7.6,2.8s5,2,7.5,3l3.7,1.7c1.2,0.6,2.5,1.1,3.7,1.7
		c-1.3-0.4-2.6-0.8-3.9-1.3l-3.8-1.3c-2.5-0.9-5.1-1.9-7.6-2.8s-5-2-7.5-3S278.3,196.8,275.8,195.6z"/>
	<path class="st5" d="M283.2,177.3c2.5-0.6,5-1.2,7.5-1.7s5-1,7.5-1.4s5.1-0.9,7.6-1.2l3.8-0.5c1.3-0.1,2.5-0.3,3.8-0.4
		c-1.2,0.3-2.5,0.6-3.7,0.9l-3.8,0.8c-2.5,0.5-5,1-7.5,1.4s-5.1,0.9-7.6,1.2S285.8,177,283.2,177.3z"/>
</g>
<path class="st5" d="M223.2,192.8c0.4-2,1.1-4,2-5.9c0.9-1.9,2-3.7,3.3-5.3c1.3-1.6,3-2.9,5-3.8c2-0.8,4.3-0.7,6.3,0.1
	c2,0.8,3.6,2.5,4.5,4.5c0.4,1,0.7,2,0.9,3.1c0.1,1.1,0,2.2-0.4,3.3c-0.2,0.6-0.6,1.1-1.1,1.4c-0.3,0.2-0.6,0.3-0.9,0.3
	c-0.3,0.1-0.7,0-1-0.1c-0.6-0.3-1-0.7-1.3-1.3c-0.2-0.5-0.4-1-0.6-1.5c-0.5-2.1-0.7-4.2-0.5-6.3c0.2-4.2,1.5-8.4,3.6-12
	c1.1-1.8,2.6-3.4,4.3-4.6c1.8-1.2,3.8-2,5.9-2.3c1-0.2,2.1-0.3,3.1-0.3c0.5,0,1.1,0,1.6,0.1c0.5,0,1,0.1,1.6,0.2
	c2.1,0.4,4,1.2,5.9,2.2c1.8,1.1,3.4,2.4,4.9,3.8c1.5,1.5,2.8,3.1,3.9,4.9c-2.3-3.4-5.4-6.2-9-8.3c-1.8-1-3.7-1.6-5.7-2
	c-0.5-0.1-1-0.1-1.5-0.2c-0.5-0.1-1-0.1-1.5-0.1c-1,0-2,0.1-3,0.3c-2,0.3-3.9,1.1-5.5,2.2c-1.6,1.2-3,2.7-4.1,4.4
	c-2.1,3.5-3.2,7.5-3.4,11.5c-0.2,2,0,4,0.4,6c0.1,0.9,0.6,1.7,1.3,2.2c0.1,0,0.1,0.1,0.2,0.1c0.1,0,0.2,0,0.3,0
	c0.2,0,0.4-0.1,0.5-0.2c0.4-0.2,0.6-0.6,0.8-1c0.3-0.9,0.4-1.9,0.3-2.8c-0.1-1-0.4-1.9-0.8-2.9c-0.8-1.8-2.2-3.3-4-4.1
	c-1.8-0.8-3.9-0.8-5.8-0.2c-1.9,0.7-3.6,1.9-4.9,3.5C226.2,185.1,224.2,188.8,223.2,192.8z"/>
<path class="st5" d="M59.1,205.6c1-1.8,2.4-3.4,4.1-4.6c1.7-1.3,3.6-2.2,5.6-2.7c2.1-0.5,4.2-0.5,6.3,0.1c2,0.6,3.9,1.8,5.3,3.3
	c1.5,1.5,2.6,3.3,3.3,5.3c0.8,2,1.1,4.1,1,6.2c0,1.1-0.4,2.2-1.2,3.1c-0.4,0.5-1,0.7-1.7,0.8c-0.6,0-1.2-0.1-1.7-0.4
	c-0.5-0.3-1-0.8-1.2-1.3c-0.2-0.5-0.4-1.1-0.4-1.7c0-1.1,0.2-2.2,0.5-3.2c0.7-2,1.7-3.9,3.1-5.5c1.3-1.7,2.8-3.1,4.5-4.4
	c3.4-2.6,7.7-3.7,11.9-3.3c4.2,0.5,8.1,2.6,10.7,6c1.3,1.6,2.3,3.4,3.1,5.4c0.8,1.9,1.3,3.9,1.6,6c-0.8-4-2.5-7.8-5.1-11
	c-1.3-1.6-2.8-2.9-4.6-3.8c-1.8-0.9-3.7-1.5-5.7-1.7c-4-0.4-8,0.8-11.3,3.2c-3.3,2.4-5.8,5.6-7.2,9.4c-0.3,0.9-0.5,1.9-0.5,2.9
	c-0.1,0.9,0.4,1.7,1.1,2.2c0.4,0.2,0.8,0.3,1.3,0.3c0.4,0,0.7-0.2,1-0.5c0.6-0.7,0.9-1.6,0.9-2.6c0.1-2-0.2-4-0.9-5.8
	c-0.7-1.9-1.8-3.6-3.1-5.1c-1.4-1.5-3.1-2.6-5-3.2c-1.9-0.6-4-0.7-5.9-0.3C64.8,199.7,61.3,202.2,59.1,205.6z"/>
<path class="st5" d="M155.5,51.5c-0.1-4.1-1-8.2-2.9-11.9c-0.9-1.8-2.2-3.4-3.9-4.6c-1.7-1.1-3.7-1.5-5.7-1.2
	c-1.9,0.3-3.7,1.4-4.9,3c-0.6,0.8-1.1,1.7-1.4,2.6c-0.3,0.9-0.5,1.9-0.4,2.8c0.1,0.4,0.2,0.8,0.5,1.1c0.1,0.1,0.3,0.3,0.5,0.3
	c0.1,0,0.2,0.1,0.3,0.1c0.1,0,0.2,0,0.2,0c0.7-0.1,1.4-1,1.8-1.9c0.9-1.8,1.5-3.7,1.9-5.7c0.8-4,0.6-8.1-0.6-12
	c-0.6-1.9-1.6-3.7-2.9-5.2c-1.3-1.5-3-2.7-4.9-3.5c-0.9-0.4-1.9-0.8-2.8-1c-0.5-0.1-1-0.2-1.5-0.3c-0.5-0.1-1-0.2-1.5-0.2
	c-2-0.1-4,0.1-6,0.6c-4,1.1-7.6,3.1-10.7,5.9c1.5-1.5,3.1-2.7,4.9-3.8c1.8-1.1,3.7-2,5.7-2.6c2-0.6,4.1-0.8,6.2-0.8
	c0.5,0,1.1,0.1,1.6,0.2c0.5,0.1,1,0.1,1.6,0.3c1,0.2,2,0.6,3,1c2,0.8,3.8,2,5.2,3.6c1.4,1.6,2.5,3.5,3.2,5.5c1.2,4,1.5,8.3,0.7,12.5
	c-0.3,2.1-1,4.1-2,6c-0.3,0.5-0.6,0.9-0.9,1.3c-0.4,0.5-0.9,0.9-1.6,1c-0.3,0-0.7,0-1-0.1c-0.3-0.1-0.6-0.3-0.8-0.6
	c-0.4-0.5-0.7-1-0.7-1.6c-0.1-1.1,0-2.2,0.4-3.3c0.4-1,0.9-2,1.6-2.8c1.3-1.8,3.2-2.9,5.4-3.3c2.2-0.3,4.3,0.2,6.1,1.4
	c1.7,1.3,3.1,2.9,4,4.8c0.9,1.9,1.6,3.9,1.9,5.9C155.4,47.4,155.6,49.4,155.5,51.5z"/>
<path class="st5" d="M305.4,29.4c-4-0.9-8.2-0.9-12.2,0.1c-2,0.5-3.8,1.4-5.3,2.7c-1.4,1.4-2.3,3.2-2.5,5.2c-0.1,2,0.5,3.9,1.8,5.4
	c0.6,0.8,1.3,1.5,2.2,2c0.8,0.5,1.7,0.9,2.7,1c0.4,0,0.9,0,1.2-0.2c0.2-0.1,0.3-0.2,0.4-0.4c0.1-0.1,0.1-0.2,0.1-0.3
	c0-0.1,0-0.2,0.1-0.2c0-0.7-0.7-1.6-1.4-2.2c-1.5-1.3-3.3-2.4-5.1-3.2c-3.7-1.7-7.8-2.5-11.8-2.3c-2,0.1-4,0.7-5.8,1.6
	c-1.8,0.9-3.3,2.3-4.5,3.9c-0.6,0.8-1.2,1.6-1.7,2.5c-0.3,0.4-0.5,0.9-0.6,1.4c-0.2,0.5-0.4,0.9-0.5,1.4c-0.6,1.9-0.9,4-0.8,6
	c0.2,4.1,1.3,8.2,3.2,11.8c-1.1-1.8-1.9-3.7-2.5-5.6c-0.6-2-1-4-1.2-6.1c-0.1-2.1,0.1-4.2,0.7-6.2c0.1-0.5,0.3-1,0.5-1.5
	c0.2-0.5,0.4-1,0.6-1.4c0.5-0.9,1-1.8,1.7-2.7c1.2-1.8,2.8-3.2,4.7-4.2c1.9-1,4-1.6,6.1-1.7c4.2-0.3,8.4,0.5,12.3,2.2
	c2,0.8,3.8,2,5.4,3.4c0.4,0.4,0.8,0.8,1.1,1.2c0.4,0.5,0.6,1.1,0.6,1.8c0,0.3-0.2,0.7-0.4,0.9c-0.2,0.3-0.4,0.5-0.7,0.7
	c-0.5,0.3-1.2,0.4-1.8,0.3c-1.1-0.1-2.2-0.5-3.1-1.2c-0.9-0.6-1.7-1.3-2.4-2.2c-1.4-1.7-2.1-3.9-1.9-6.1c0.2-2.2,1.2-4.2,2.8-5.7
	c1.6-1.4,3.6-2.3,5.6-2.8c2-0.4,4.1-0.6,6.2-0.5C301.3,28.5,303.4,28.9,305.4,29.4z"/>
<path class="st5" d="M184.1,54.2c-0.7-2.4-0.8-4.9-0.4-7.3c0.4-2.5,1.2-4.9,2.6-7c1.3-2.1,3.2-3.9,5.4-5.1c2.3-1.2,4.8-1.7,7.3-1.6
	c2.5,0.1,5,0.7,7.3,1.8c2.3,1,4.4,2.5,6.1,4.5c0.9,1,1.5,2.2,1.6,3.6c0,0.7-0.3,1.5-0.8,2c-0.5,0.5-1.1,0.9-1.8,1.1
	c-0.7,0.2-1.4,0.2-2.1-0.1c-0.6-0.3-1.2-0.6-1.7-1.1c-0.9-0.9-1.7-2-2.2-3.2c-1.1-2.3-1.8-4.7-2-7.3c-0.3-2.5-0.2-5,0.2-7.5
	c0.8-5,3.4-9.6,7.4-12.7c2-1.5,4.3-2.7,6.7-3.3c2.4-0.6,4.9-0.8,7.4-0.5c2.5,0.3,4.9,1,7.1,2c2.3,1,4.5,2.2,6.4,3.7
	c-4-2.8-8.7-4.6-13.6-5.2c-2.4-0.3-4.9-0.1-7.2,0.6c-4.7,1.4-8.6,4.5-11,8.8c-1.2,2.1-2,4.4-2.4,6.8c-0.8,4.8-0.2,9.7,1.7,14.1
	c0.5,1.1,1.2,2.1,2,2.9c0.7,0.8,1.8,1.2,2.9,1c0.5-0.2,1-0.4,1.4-0.8c0.4-0.4,0.5-0.8,0.5-1.3c-0.1-1.1-0.6-2.2-1.4-3
	c-1.6-1.8-3.5-3.3-5.7-4.2c-2.2-1-4.6-1.6-7-1.7c-2.4-0.1-4.8,0.4-7,1.4c-2.2,1.1-4,2.7-5.3,4.8C184,44.4,183.1,49.4,184.1,54.2z"/>
<path class="st0" d="M55.7,205.9c-2.2-0.7-4.6,0.5-5.3,2.8c-0.7,2.2,0.5,4.6,2.8,5.3c2.2,0.7,4.6-0.5,5.3-2.8c0,0,0,0,0,0
	C59.2,209,58,206.6,55.7,205.9C55.7,205.9,55.7,205.9,55.7,205.9z M58,211.1c-0.6,2-2.7,3.1-4.7,2.4s-3.1-2.7-2.4-4.7
	c0.6-2,2.7-3.1,4.7-2.4c0,0,0,0,0,0C57.5,207,58.6,209.1,58,211.1L58,211.1z M55.7,205.9c-2.2-0.7-4.6,0.5-5.3,2.8
	c-0.7,2.2,0.5,4.6,2.8,5.3c2.2,0.7,4.6-0.5,5.3-2.8c0,0,0,0,0,0C59.2,209,58,206.6,55.7,205.9C55.7,205.9,55.7,205.9,55.7,205.9z
	 M58,211.1c-0.6,2-2.7,3.1-4.7,2.4s-3.1-2.7-2.4-4.7c0.6-2,2.7-3.1,4.7-2.4c0,0,0,0,0,0C57.5,207,58.6,209.1,58,211.1L58,211.1z
	 M55.7,205.9c-2.2-0.7-4.6,0.5-5.3,2.8c-0.7,2.2,0.5,4.6,2.8,5.3c2.2,0.7,4.6-0.5,5.3-2.8c0,0,0,0,0,0C59.2,209,58,206.6,55.7,205.9
	C55.7,205.9,55.7,205.9,55.7,205.9z M58,211.1c-0.6,2-2.7,3.1-4.7,2.4s-3.1-2.7-2.4-4.7c0.6-2,2.7-3.1,4.7-2.4c0,0,0,0,0,0
	C57.5,207,58.6,209.1,58,211.1L58,211.1z M57.2,201.4c-4.7-1.5-9.8,1.1-11.3,5.8s1.1,9.8,5.8,11.3c4.7,1.5,9.8-1.1,11.3-5.8
	c0,0,0-0.1,0-0.1C64.5,207.9,61.9,202.9,57.2,201.4L57.2,201.4z M59.2,211.4c-0.8,2.6-3.6,4-6.2,3.2c-2.6-0.8-4-3.6-3.2-6.2
	c0.8-2.6,3.6-4,6.2-3.2C58.5,206,60,208.8,59.2,211.4C59.2,211.4,59.2,211.4,59.2,211.4L59.2,211.4z M58.5,211.2
	c0.7-2.2-0.5-4.6-2.8-5.3c-2.2-0.7-4.6,0.5-5.3,2.8c-0.7,2.2,0.5,4.6,2.8,5.3C55.4,214.7,57.8,213.4,58.5,211.2L58.5,211.2z M58,211
	c-0.6,2-2.7,3.1-4.7,2.4s-3.1-2.7-2.4-4.7c0.6-2,2.7-3.1,4.7-2.4c0,0,0,0,0,0C57.6,207,58.6,209.1,58,211C58,211,58,211,58,211
	L58,211z M55.7,205.8c-2.2-0.7-4.6,0.5-5.3,2.8c-0.7,2.2,0.5,4.6,2.8,5.3c2.2,0.7,4.6-0.5,5.3-2.8c0,0,0,0,0,0
	C59.2,208.9,58,206.6,55.7,205.8L55.7,205.8z M58,211c-0.6,2-2.7,3.1-4.7,2.4s-3.1-2.7-2.4-4.7c0.6-2,2.7-3.1,4.7-2.4c0,0,0,0,0,0
	C57.6,207,58.6,209.1,58,211C58,211,58,211,58,211L58,211z M55.7,205.8c-2.2-0.7-4.6,0.5-5.3,2.8c-0.7,2.2,0.5,4.6,2.8,5.3
	c2.2,0.7,4.6-0.5,5.3-2.8c0,0,0,0,0,0C59.2,208.9,58,206.6,55.7,205.8L55.7,205.8z M58,211c-0.6,2-2.7,3.1-4.7,2.4s-3.1-2.7-2.4-4.7
	c0.6-2,2.7-3.1,4.7-2.4c0,0,0,0,0,0C57.6,207,58.6,209.1,58,211C58,211,58,211,58,211L58,211z"/>
<polygon class="st0" points="53.5,218.6 50.2,217.6 49.7,220 52.6,220.9 "/>
<polygon class="st0" points="47.6,215.6 46,212.5 43.9,213.8 45.4,216.5 "/>
<polygon class="st0" points="45.6,209.2 46.6,205.9 44.3,205.4 43.3,208.3 "/>
<polygon class="st0" points="48.7,203.3 51.7,201.7 50.5,199.6 47.7,201.1 "/>
<polygon class="st0" points="55,201.3 58.3,202.3 58.9,200 56,199 "/>
<polygon class="st0" points="61,204.4 62.5,207.4 64.6,206.1 63.2,203.4 "/>
<polygon class="st0" points="63,210.7 61.9,214 64.3,214.6 65.2,211.7 "/>
<polygon class="st0" points="59.9,216.6 56.8,218.2 58.1,220.3 60.8,218.9 "/>
<path class="st5" d="M293.3,190.4c4.5-6.1,3.2-14.7-2.8-19.2c-6.1-4.5-14.7-3.2-19.2,2.8c-4.5,6.1-3.2,14.7,2.8,19.2c0,0,0,0,0,0
	C280.2,197.8,288.7,196.5,293.3,190.4C293.2,190.4,293.3,190.4,293.3,190.4z M287.4,186.1c-2.1,2.8-6.1,3.4-9,1.3
	c-2.8-2.1-3.4-6.1-1.3-9c2.1-2.8,6.1-3.4,8.9-1.3C288.9,179.1,289.5,183.2,287.4,186.1C287.4,186,287.4,186,287.4,186.1L287.4,186.1
	z"/>
<polygon class="st5" points="276.5,194.4 272.3,191.2 270.3,194.4 274.1,197.2 "/>
<polygon class="st5" points="269.6,187 268.8,181.7 265.1,182.6 265.8,187.2 "/>
<polygon class="st5" points="269.8,176.8 273,172.5 269.8,170.6 267,174.3 "/>
<polygon class="st5" points="277.2,169.8 282.5,169 281.6,165.4 277,166.1 "/>
<polygon class="st5" points="287.4,170.1 291.6,173.2 293.6,170 289.9,167.3 "/>
<polygon class="st5" points="294.4,177.5 295.2,182.7 298.8,181.9 298.1,177.2 "/>
<polygon class="st5" points="294.1,187.7 291,191.9 294.2,193.9 296.9,190.1 "/>
<polygon class="st5" points="286.7,194.6 281.5,195.4 282.3,199.1 287,198.4 "/>
<path class="st5" d="M277.3,182.9l2.9,3.7l4.6-0.7l1.7-4.4l-2.9-3.7l-4.6,0.7L277.3,182.9z M282.9,181c0.7,0.5,0.8,1.4,0.3,2.1
	c-0.5,0.7-1.4,0.8-2.1,0.3c-0.7-0.5-0.8-1.4-0.3-2.1C281.3,180.7,282.3,180.5,282.9,181z"/>
<path class="st5" d="M244.2,13.2c-2-0.6-4,0.5-4.7,2.4c-0.6,2,0.5,4,2.4,4.7c2,0.6,4-0.5,4.7-2.4C247.2,15.9,246.1,13.8,244.2,13.2
	C244.2,13.2,244.2,13.2,244.2,13.2z M246.2,17.7c-0.5,1.7-2.4,2.7-4.1,2.2c-1.7-0.5-2.7-2.4-2.2-4.1c0.5-1.7,2.4-2.7,4.1-2.2
	c0,0,0,0,0,0C245.7,14.1,246.7,16,246.2,17.7L246.2,17.7z M244.2,13.2c-2-0.6-4,0.5-4.7,2.4c-0.6,2,0.5,4,2.4,4.7
	c2,0.6,4-0.5,4.7-2.4C247.2,15.9,246.1,13.8,244.2,13.2C244.2,13.2,244.2,13.2,244.2,13.2z M246.2,17.7c-0.5,1.7-2.4,2.7-4.1,2.2
	c-1.7-0.5-2.7-2.4-2.2-4.1c0.5-1.7,2.4-2.7,4.1-2.2c0,0,0,0,0,0C245.7,14.1,246.7,16,246.2,17.7L246.2,17.7z M244.2,13.2
	c-2-0.6-4,0.5-4.7,2.4c-0.6,2,0.5,4,2.4,4.7c2,0.6,4-0.5,4.7-2.4C247.2,15.9,246.1,13.8,244.2,13.2
	C244.2,13.2,244.2,13.2,244.2,13.2z M246.2,17.7c-0.5,1.7-2.4,2.7-4.1,2.2c-1.7-0.5-2.7-2.4-2.2-4.1c0.5-1.7,2.4-2.7,4.1-2.2
	c0,0,0,0,0,0C245.7,14.1,246.7,16,246.2,17.7L246.2,17.7z M245.4,9.2c-4.1-1.3-8.5,1-9.8,5.1c-1.3,4.1,1,8.5,5.1,9.8
	c4.1,1.3,8.5-1,9.8-5.1C251.8,14.9,249.5,10.5,245.4,9.2z M247.1,18c-0.7,2.3-3.1,3.6-5.4,2.9s-3.6-3.1-2.9-5.4
	c0.7-2.3,3.1-3.6,5.4-2.9c0,0,0,0,0.1,0C246.6,13.4,247.8,15.8,247.1,18z M246.6,17.8c0.6-2-0.5-4-2.4-4.7s-4,0.5-4.7,2.4
	c-0.6,2,0.5,4,2.4,4.7C243.9,20.9,246,19.8,246.6,17.8C246.6,17.8,246.6,17.8,246.6,17.8z M246.2,17.7c-0.5,1.7-2.4,2.7-4.1,2.2
	c-1.7-0.5-2.7-2.4-2.2-4.1c0.5-1.7,2.4-2.7,4.1-2.2c0,0,0,0,0,0C245.7,14.1,246.7,16,246.2,17.7L246.2,17.7z M244.2,13.2
	c-2-0.6-4,0.5-4.7,2.4c-0.6,2,0.5,4,2.4,4.7c2,0.6,4-0.5,4.7-2.4C247.2,15.9,246.1,13.8,244.2,13.2
	C244.2,13.2,244.2,13.2,244.2,13.2z M246.2,17.7c-0.5,1.7-2.4,2.7-4.1,2.2c-1.7-0.5-2.7-2.4-2.2-4.1c0.5-1.7,2.4-2.7,4.1-2.2
	c0,0,0,0,0,0C245.7,14.1,246.7,16,246.2,17.7L246.2,17.7z M244.2,13.2c-2-0.6-4,0.5-4.7,2.4c-0.6,2,0.5,4,2.4,4.7
	c2,0.6,4-0.5,4.7-2.4C247.2,15.9,246.1,13.8,244.2,13.2C244.2,13.2,244.2,13.2,244.2,13.2z M246.2,17.7c-0.5,1.7-2.4,2.7-4.1,2.2
	c-1.7-0.5-2.7-2.4-2.2-4.1c0.5-1.7,2.4-2.7,4.1-2.2c0,0,0,0,0,0C245.7,14.1,246.7,16,246.2,17.7L246.2,17.7z"/>
<polygon class="st5" points="242.2,24.3 239.3,23.4 238.9,25.5 241.4,26.3 "/>
<polygon class="st5" points="237.1,21.6 235.7,19 233.8,20.1 235.1,22.5 "/>
<polygon class="st5" points="235.3,16.1 236.2,13.2 234.1,12.7 233.3,15.3 "/>
<polygon class="st5" points="238,10.9 240.7,9.5 239.5,7.7 237.2,8.9 "/>
<polygon class="st5" points="243.6,9.2 246.4,10.1 246.9,8 244.4,7.2 "/>
<polygon class="st5" points="248.7,11.9 250.1,14.5 251.9,13.4 250.7,11 "/>
<polygon class="st5" points="250.5,17.4 249.6,20.3 251.7,20.8 252.5,18.2 "/>
<polygon class="st5" points="247.8,22.6 245.1,24 246.2,25.8 248.6,24.6 "/>
<path class="st5" d="M265.3,66.5c-2-0.6-4,0.5-4.7,2.4c-0.6,2,0.5,4,2.4,4.7c2,0.6,4-0.5,4.7-2.4C268.4,69.2,267.3,67.2,265.3,66.5
	C265.3,66.5,265.3,66.5,265.3,66.5z M267.3,71.1c-0.5,1.7-2.4,2.7-4.1,2.1c-1.7-0.5-2.7-2.4-2.1-4.1c0.5-1.7,2.4-2.7,4.1-2.1
	c0,0,0,0,0,0C266.9,67.5,267.8,69.3,267.3,71.1z M265.3,66.5c-2-0.6-4,0.5-4.7,2.4c-0.6,2,0.5,4,2.4,4.7c2,0.6,4-0.5,4.7-2.4
	C268.4,69.2,267.3,67.2,265.3,66.5C265.3,66.5,265.3,66.5,265.3,66.5z M267.3,71.1c-0.5,1.7-2.4,2.7-4.1,2.1
	c-1.7-0.5-2.7-2.4-2.1-4.1c0.5-1.7,2.4-2.7,4.1-2.1c0,0,0,0,0,0C266.9,67.5,267.8,69.3,267.3,71.1z M265.3,66.5
	c-2-0.6-4,0.5-4.7,2.4c-0.6,2,0.5,4,2.4,4.7c2,0.6,4-0.5,4.7-2.4C268.4,69.2,267.3,67.2,265.3,66.5
	C265.3,66.5,265.3,66.5,265.3,66.5z M267.3,71.1c-0.5,1.7-2.4,2.7-4.1,2.1c-1.7-0.5-2.7-2.4-2.1-4.1c0.5-1.7,2.4-2.7,4.1-2.1
	c0,0,0,0,0,0C266.9,67.5,267.8,69.3,267.3,71.1z M266.5,62.6c-4.1-1.3-8.5,1-9.8,5.1c-1.3,4.1,1,8.5,5.1,9.8s8.5-1,9.8-5.1
	c0,0,0,0,0,0C273,68.3,270.7,63.9,266.5,62.6z M268.3,71.4c-0.7,2.3-3.1,3.5-5.4,2.8c-2.3-0.7-3.5-3.1-2.8-5.4
	c0.7-2.3,3.1-3.5,5.4-2.8c0,0,0,0,0,0C267.7,66.7,269,69.1,268.3,71.4z M267.7,71.2c0.6-2-0.5-4-2.4-4.7c-2-0.6-4,0.5-4.7,2.4
	c-0.6,2,0.5,4,2.4,4.7c0,0,0,0,0,0C265,74.2,267.1,73.2,267.7,71.2z M267.3,71.1c-0.5,1.7-2.4,2.7-4.1,2.1c-1.7-0.5-2.7-2.4-2.1-4.1
	c0.5-1.7,2.4-2.7,4.1-2.1c0,0,0,0,0,0C266.9,67.5,267.8,69.3,267.3,71.1z M265.3,66.5c-2-0.6-4,0.5-4.7,2.4c-0.6,2,0.5,4,2.4,4.7
	c2,0.6,4-0.5,4.7-2.4C268.4,69.2,267.3,67.2,265.3,66.5C265.3,66.5,265.3,66.5,265.3,66.5z M267.3,71.1c-0.5,1.7-2.4,2.7-4.1,2.1
	c-1.7-0.5-2.7-2.4-2.1-4.1c0.5-1.7,2.4-2.7,4.1-2.1c0,0,0,0,0,0C266.9,67.5,267.8,69.3,267.3,71.1z M265.3,66.5
	c-2-0.6-4,0.5-4.7,2.4c-0.6,2,0.5,4,2.4,4.7c2,0.6,4-0.5,4.7-2.4C268.4,69.2,267.3,67.2,265.3,66.5
	C265.3,66.5,265.3,66.5,265.3,66.5z M267.3,71.1c-0.5,1.7-2.4,2.7-4.1,2.1c-1.7-0.5-2.7-2.4-2.1-4.1c0.5-1.7,2.4-2.7,4.1-2.1
	c0,0,0,0,0,0C266.9,67.5,267.8,69.3,267.3,71.1z"/>
<polygon class="st5" points="263.4,77.7 260.5,76.8 260,78.9 262.6,79.7 "/>
<polygon class="st5" points="258.2,75 256.8,72.3 255,73.5 256.2,75.8 "/>
<polygon class="st5" points="256.5,69.4 257.4,66.6 255.3,66.1 254.5,68.6 "/>
<polygon class="st5" points="259.1,64.3 261.8,62.9 260.7,61.1 258.3,62.3 "/>
<polygon class="st5" points="264.7,62.5 267.6,63.4 268.1,61.3 265.5,60.5 "/>
<polygon class="st5" points="269.9,65.2 271.3,67.9 273.1,66.8 271.8,64.4 "/>
<polygon class="st5" points="271.6,70.8 270.7,73.7 272.8,74.1 273.6,71.6 "/>
<polygon class="st5" points="268.9,75.9 266.3,77.3 267.4,79.2 269.8,77.9 "/>
<path class="st5" d="M117.6,28.3c1.5-6.3-2.3-12.7-8.7-14.2c-6.3-1.5-12.7,2.3-14.2,8.7C93.1,29,97,35.4,103.3,37
	C109.7,38.5,116,34.6,117.6,28.3C117.6,28.3,117.6,28.3,117.6,28.3z M111.5,26.8c-0.7,3-3.7,4.8-6.7,4.1c-3-0.7-4.8-3.7-4.1-6.7
	c0.7-3,3.7-4.8,6.7-4.1c0,0,0,0,0,0C110.4,20.9,112.2,23.9,111.5,26.8L111.5,26.8z"/>
<polygon class="st5" points="105.7,37 101.3,36 100.7,39.1 104.7,40.1 "/>
<polygon class="st5" points="97.6,33.5 95.3,29.6 92.7,31.5 94.8,35 "/>
<polygon class="st5" points="94.5,25.3 95.5,20.9 92.4,20.4 91.4,24.3 "/>
<polygon class="st5" points="98,17.3 101.9,14.9 100,12.3 96.5,14.4 "/>
<polygon class="st5" points="106.2,14.1 110.6,15.2 111.1,12 107.2,11.1 "/>
<polygon class="st5" points="114.2,17.6 116.5,21.5 119.2,19.6 117.1,16.2 "/>
<polygon class="st5" points="117.4,25.8 116.3,30.2 119.5,30.7 120.4,26.8 "/>
<polygon class="st5" points="113.8,33.8 110,36.2 111.8,38.8 115.3,36.7 "/>
<path class="st5" d="M102.5,27.7l3.5,1.9l3.4-2.1l-0.1-4l-3.5-1.9l-3.4,2.1L102.5,27.7z M106.2,24.3c0.7,0.2,1.1,0.8,0.9,1.5
	c0,0,0,0,0,0c-0.2,0.7-0.9,1.1-1.5,0.9c-0.7-0.2-1.1-0.9-0.9-1.5C104.8,24.6,105.5,24.2,106.2,24.3
	C106.2,24.3,106.2,24.3,106.2,24.3z"/>
<g id="Speech_Bubble">
	<path class="st5" d="M313.2,76c-5.4-7.7-5.8-17.9-1-26c2.4-4,5.5-7.4,9.3-10.1c3.7-2.7,7.8-4.8,12.2-6.2c4.4-1.4,8.9-2.3,13.5-2.7
		c4.6-0.3,9.2-0.1,13.7,0.7c1.1,0.2,2.3,0.4,3.4,0.7l3.3,0.9l3.3,1.1c1.1,0.4,2.1,0.9,3.2,1.4c4.2,1.9,8,4.6,11.3,7.8
		c3.3,3.2,5.8,7.3,7.3,11.7c1.4,4.5,1.5,9.3,0.1,13.7c-1.4,4.5-3.8,8.5-7.1,11.8c-3.3,3.3-7.1,6-11.2,8c-4.1,2-8.6,3.4-13.1,4.2
		c-4.5,0.8-9.1,1.1-13.7,0.8c-4.6-0.3-9.1-1.1-13.5-2.6c-4.4-1.4-8.5-3.5-12.3-6.1h0.2l-14.5,3.6h-0.2l0.1-0.2L313.2,76z M313.2,76
		l-5.6,12.7l-0.1-0.1l14.5-3.9h0.1l0.1,0.1c7.6,5.1,16.4,7.9,25.5,8.3c4.5,0.2,9.1-0.1,13.5-0.9c4.5-0.8,8.8-2.2,12.9-4.2
		c4.1-2,7.8-4.6,10.9-7.8c3.2-3.2,5.6-7.1,6.9-11.4c1.2-4.3,1.2-8.9-0.2-13.2c-1.4-4.3-3.8-8.1-7-11.3c-3.2-3.2-6.9-5.8-11-7.7
		c-1-0.4-2-1-3.1-1.3l-3.2-1.1l-3.3-0.9c-1.1-0.3-2.2-0.4-3.3-0.7c-4.5-0.8-9-1-13.5-0.7c-4.6,0.3-9.1,1.1-13.4,2.5
		c-4.3,1.4-8.4,3.4-12.1,6c-3.7,2.6-6.9,5.9-9.3,9.8c-2.4,3.9-3.6,8.4-3.5,12.9C309.2,67.7,310.6,72.2,313.2,76z"/>
	<path class="st5" d="M329.4,67.5v2.3H320V56.2h9.3v2.3h-6.6v3.3h5.7V64h-5.7v3.5L329.4,67.5z"/>
	<path class="st5" d="M331.5,69.8V56.2h6c0.6,0,1.2,0.1,1.7,0.4c0.5,0.2,1,0.6,1.4,1c0.4,0.4,0.7,0.9,0.9,1.4
		c0.2,0.5,0.3,1.1,0.3,1.6c0,0.8-0.2,1.7-0.7,2.4c-0.4,0.7-1,1.2-1.8,1.6l3.1,5.1h-3l-2.8-4.6h-2.6v4.6L331.5,69.8z M334.2,63h3.3
		c0.2,0,0.5-0.1,0.7-0.2c0.2-0.1,0.4-0.3,0.5-0.5c0.2-0.2,0.3-0.4,0.4-0.7c0.1-0.3,0.1-0.6,0.1-0.9c0-0.3,0-0.6-0.1-0.9
		c-0.1-0.3-0.2-0.5-0.4-0.7c-0.2-0.2-0.4-0.3-0.6-0.5c-0.2-0.1-0.4-0.2-0.7-0.2h-3.2V63z"/>
	<path class="st5" d="M344.2,69.8V56.2h6c0.6,0,1.2,0.1,1.7,0.4c0.5,0.2,1,0.6,1.4,1c0.4,0.4,0.7,0.9,0.9,1.4
		c0.2,0.5,0.3,1.1,0.3,1.6c0,0.8-0.2,1.7-0.7,2.4c-0.4,0.7-1,1.2-1.8,1.6l3.1,5.1h-3l-2.8-4.6h-2.5v4.6L344.2,69.8z M346.9,63h3.3
		c0.2,0,0.5-0.1,0.7-0.2c0.2-0.1,0.4-0.3,0.5-0.5c0.2-0.2,0.3-0.4,0.4-0.7c0.1-0.3,0.1-0.6,0.1-0.9c0-0.3-0.1-0.6-0.2-0.9
		c-0.1-0.3-0.2-0.5-0.4-0.7c-0.2-0.2-0.4-0.3-0.6-0.5c-0.2-0.1-0.4-0.2-0.7-0.2h-3.2L346.9,63z"/>
	<path class="st5" d="M362.8,69.9c-0.9,0-1.9-0.2-2.7-0.6c-0.8-0.4-1.5-0.9-2.1-1.6c-1.2-1.3-1.8-3-1.8-4.7c0-0.9,0.2-1.8,0.5-2.6
		c0.3-0.8,0.8-1.6,1.4-2.2c0.6-0.6,1.3-1.2,2.1-1.5c0.8-0.4,1.7-0.6,2.7-0.6c0.9,0,1.9,0.2,2.7,0.6c0.8,0.4,1.5,0.9,2.1,1.6
		c0.6,0.7,1,1.4,1.3,2.2c1,2.5,0.4,5.3-1.4,7.3c-0.6,0.6-1.3,1.2-2.1,1.5C364.6,69.7,363.7,69.9,362.8,69.9z M358.8,63
		c0,0.6,0.1,1.2,0.3,1.7c0.2,0.5,0.4,1,0.8,1.5c0.3,0.4,0.8,0.8,1.2,1c0.5,0.3,1.1,0.4,1.7,0.4c0.6,0,1.2-0.1,1.7-0.4
		c0.5-0.2,0.9-0.6,1.2-1c0.3-0.4,0.6-0.9,0.8-1.5c0.2-0.5,0.3-1.1,0.3-1.6c0-0.6-0.1-1.2-0.3-1.7c-0.2-0.5-0.4-1-0.8-1.5
		c-0.3-0.4-0.8-0.8-1.3-1c-0.5-0.3-1.1-0.4-1.6-0.4c-0.6,0-1.2,0.1-1.7,0.4c-0.5,0.2-0.9,0.6-1.2,1c-0.3,0.4-0.6,0.9-0.8,1.4
		C358.9,61.9,358.8,62.5,358.8,63L358.8,63z"/>
	<path class="st5" d="M371.4,69.8V56.2h6c0.6,0,1.2,0.1,1.7,0.4c0.5,0.2,1,0.6,1.4,1c0.4,0.4,0.7,0.9,0.9,1.4
		c0.2,0.5,0.3,1.1,0.3,1.6c0,0.8-0.2,1.7-0.7,2.4c-0.4,0.7-1,1.3-1.8,1.6l3.1,5.1h-3l-2.8-4.6H374v4.6H371.4z M374.1,63h3.3
		c0.2,0,0.5-0.1,0.7-0.2c0.2-0.1,0.4-0.3,0.5-0.5c0.2-0.2,0.3-0.4,0.4-0.7c0.1-0.3,0.1-0.6,0.1-0.9c0-0.3,0-0.6-0.1-0.9
		c-0.1-0.3-0.2-0.5-0.4-0.7c-0.2-0.2-0.4-0.4-0.6-0.5c-0.2-0.1-0.4-0.2-0.7-0.2H374L374.1,63z"/>
</g>
</svg>
