<?xml version="1.0" encoding="utf-8"?>
<!-- Generator: Adobe Illustrator 25.3.1, SVG Export Plug-In . SVG Version: 6.00 Build 0)  -->
<svg version="1.1" id="Capa_1" xmlns="http://www.w3.org/2000/svg" xmlns:xlink="http://www.w3.org/1999/xlink" x="0px" y="0px"
	 viewBox="0 0 283.5 283.5" style="enable-background:new 0 0 283.5 283.5;" xml:space="preserve">
<style type="text/css">
	.st0{fill:#FFFFFF;}
</style>
<path class="st0" d="M141.7,261.6c-3.8,0-7.5-1.4-10.4-3.9c-10.9-9.5-21.4-18.5-30.7-26.4l0,0c-27.2-23.2-50.7-43.2-67-62.9
	c-18.3-22-26.8-42.9-26.8-65.8c0-22.2,7.6-42.7,21.4-57.6c14-15.2,33.2-23.5,54-23.5c15.6,0,29.9,4.9,42.4,14.6
	C130.9,41,136.7,47,141.8,54c5.1-7,10.8-13,17.2-17.9c12.6-9.7,26.8-14.6,42.4-14.6c20.9,0,40,8.3,54,23.5
	c13.8,15,21.4,35.4,21.4,57.6c0,22.8-8.5,43.7-26.8,65.8c-16.3,19.7-39.8,39.7-67,62.9c-9.3,7.9-19.8,16.9-30.8,26.5
	C149.3,260.2,145.6,261.6,141.7,261.6z M82.2,37.2c-16.4,0-31.4,6.5-42.4,18.4c-11.1,12.1-17.2,28.7-17.2,46.9
	c0,19.2,7.1,36.4,23.1,55.7c15.5,18.7,38.5,38.3,65.1,61l0,0c9.3,7.9,19.9,16.9,30.9,26.5c11.1-9.6,21.6-18.6,31-26.6
	c26.6-22.7,49.6-42.3,65.1-61c16-19.3,23.1-36.5,23.1-55.7c0-18.2-6.1-34.9-17.2-46.9c-10.9-11.9-26-18.4-42.4-18.4
	c-12,0-23,3.8-32.7,11.3c-8.7,6.7-14.7,15.2-18.3,21.1c-1.8,3.1-5,4.9-8.6,4.9s-6.8-1.8-8.6-4.9c-3.5-5.9-9.6-14.4-18.3-21.1
	C105.2,41,94.2,37.2,82.2,37.2z"/>
</svg>
