<?xml version="1.0" encoding="utf-8"?>
<!-- Generator: Adobe Illustrator 25.3.1, SVG Export Plug-In . SVG Version: 6.00 Build 0)  -->
<svg version="1.1" id="Capa_1" xmlns="http://www.w3.org/2000/svg" xmlns:xlink="http://www.w3.org/1999/xlink" x="0px" y="0px"
	 viewBox="0 0 283.5 283.5" style="enable-background:new 0 0 283.5 283.5;" xml:space="preserve">
<style type="text/css">
	.st0{fill:#FFFFFF;}
</style>
<g>
	<g>
		<path class="st0" d="M273.4,257.5l-76.8-76.8c14.9-18.4,23.8-41.7,23.8-67.1c0-58.9-47.9-106.9-106.9-106.9S6.7,54.7,6.7,113.6
			s47.9,106.9,106.9,106.9c25.4,0,48.8-9,67.1-23.8l76.8,76.8c2.2,2.2,5.1,3.3,8,3.3c2.9,0,5.8-1.1,8-3.3
			C277.8,269,277.8,261.9,273.4,257.5z M113.6,198c-46.5,0-84.4-37.8-84.4-84.4s37.8-84.4,84.4-84.4S198,67.1,198,113.6
			S160.1,198,113.6,198z"/>
	</g>
</g>
</svg>
