<?xml version="1.0" encoding="utf-8"?>
<!-- Generator: Adobe Illustrator 25.3.1, SVG Export Plug-In . SVG Version: 6.00 Build 0)  -->
<svg version="1.1" id="Capa_1" xmlns="http://www.w3.org/2000/svg" xmlns:xlink="http://www.w3.org/1999/xlink" x="0px" y="0px"
	 viewBox="0 0 283.5 283.5" style="enable-background:new 0 0 283.5 283.5;" xml:space="preserve">
<style type="text/css">
	.st0{fill:#FFFFFF;}
</style>
<g>
	<g>
		<path class="st0" d="M200.2,127.7l-39.6-22.9l-39.3-22.7c-3.8-2.2-8.2-2.7-12-1.6s-7.4,3.5-9.6,7.4c-0.8,1.1-1.1,2.5-1.6,3.8
			c-0.3,0.8-0.3,1.9-0.5,3c0,0.3,0,0.8,0,1.1v46.4v46.4c0,4.4,1.9,8.5,4.6,11.2c3,3,6.8,4.6,11.2,4.6c2.5,0,7.6-2.2,9-3l38.8-22.4
			h0.3l0.3-0.3l40.1-23.2c3.8-2.2,6.3-5.7,7.4-9.8c0.3-0.8,0.3-1.9,0.3-3C209.4,133.7,200.2,127.7,200.2,127.7z M194.7,143.8
			l-39.6,22.9c-0.3,0-0.5,0.3-0.5,0.3l-38.8,22.4c-0.3,0.3-1.6,0.8-2.2,0.8s-1.1-0.3-1.6-0.5c-0.3-0.3-0.5-1.1-0.5-1.6V142V95.7
			v-0.3c0-0.3,0-0.3,0-0.5c0,0,0-0.3,0.3-0.3c0,0,0.3-0.3,0.3-0.5c0.3-0.3,0.8-0.5,1.1-0.8c0.5,0,1.1,0,1.4,0
			c0.3,0.3,0.5,0.3,0.8,0.5l38.8,22.4c0.3,0.3,0.5,0.3,0.5,0.3h0.3l39.6,22.9c0.5,0.3,1.6,1.1,1.6,1.9
			C196.1,142.4,195.2,143.5,194.7,143.8z"/>
		<path class="st0" d="M237.5,46.1C211.3,19.6,176.7,6.2,142,6.2S72.7,19.3,46.2,45.8C19.7,72.5,6.3,107.2,6.3,141.9
			s13.1,69.3,39.6,95.8s61.1,39.6,95.8,39.6s69.3-13.1,95.8-39.6s39.6-61.1,39.6-95.8S264,72.5,237.5,46.1z M228,227.9
			c-23.7,23.7-54.9,35.8-86,35.8s-62.2-12-86-35.8c-24-23.7-35.8-54.9-35.8-86s12-62.2,35.8-86s54.9-35.8,86-35.8s62.2,12,86,35.8
			s35.8,54.9,35.8,86S252,204.1,228,227.9z"/>
	</g>
</g>
</svg>
