<?xml version="1.0" encoding="utf-8"?>
<!-- Generator: Adobe Illustrator 25.3.1, SVG Export Plug-In . SVG Version: 6.00 Build 0)  -->
<svg version="1.1" id="Capa_1" xmlns="http://www.w3.org/2000/svg" xmlns:xlink="http://www.w3.org/1999/xlink" x="0px" y="0px"
	 viewBox="0 0 283.5 283.5" style="enable-background:new 0 0 283.5 283.5;" xml:space="preserve">
<style type="text/css">
	.st0{fill:#FFFFFF;}
</style>
<path class="st0" d="M161,141.7L269.4,33.3c5.3-5.3,5.3-13.9,0-19.1s-13.9-5.3-19.1,0L141.8,122.6L33.3,14.1
	c-5.3-5.3-13.9-5.3-19.1,0c-5.3,5.3-5.3,13.9,0,19.1l108.5,108.5L14.2,250.2c-5.3,5.3-5.3,13.9,0,19.1c2.6,2.7,6.1,4,9.6,4
	s6.9-1.3,9.6-4l108.5-108.5l108.5,108.5c2.6,2.7,6.1,4,9.6,4c3.4,0,6.9-1.3,9.6-4c5.3-5.3,5.3-13.9,0-19.1L161,141.7z"/>
</svg>
