<?xml version="1.0" encoding="utf-8"?>
<!-- Generator: Adobe Illustrator 25.3.1, SVG Export Plug-In . SVG Version: 6.00 Build 0)  -->
<svg version="1.1" id="Capa_1" xmlns="http://www.w3.org/2000/svg" xmlns:xlink="http://www.w3.org/1999/xlink" x="0px" y="0px"
	 viewBox="0 0 283.5 283.5" style="enable-background:new 0 0 283.5 283.5;" xml:space="preserve">
<style type="text/css">
	.st0{fill:#FFFFFF;}
</style>
<g>
	<g>
		<path class="st0" d="M192.7,5.7h-102c-46.9,0-85,38.1-85,85v102c0,46.9,38.1,85,85,85h102c46.9,0,85-38.1,85-85v-102
			C277.7,43.8,239.7,5.7,192.7,5.7z M252.2,192.7c0,32.8-26.7,59.5-59.5,59.5h-102c-32.8,0-59.5-26.7-59.5-59.5v-102
			c0-32.8,26.7-59.5,59.5-59.5h102c32.8,0,59.5,26.7,59.5,59.5V192.7z"/>
	</g>
</g>
<g>
	<g>
		<path class="st0" d="M141.7,73.7c-37.6,0-68,30.4-68,68s30.4,68,68,68s68-30.4,68-68S179.3,73.7,141.7,73.7z M141.7,184.2
			c-23.4,0-42.5-19.1-42.5-42.5s19.1-42.5,42.5-42.5s42.5,19.1,42.5,42.5C184.2,165.2,165.2,184.2,141.7,184.2z"/>
	</g>
</g>
<g>
	<g>
		<circle class="st0" cx="214.8" cy="68.6" r="9.1"/>
	</g>
</g>
</svg>
