<?xml version="1.0" encoding="utf-8"?>
<!-- Generator: Adobe Illustrator 25.3.1, SVG Export Plug-In . SVG Version: 6.00 Build 0)  -->
<svg version="1.1" id="Capa_1" xmlns="http://www.w3.org/2000/svg" xmlns:xlink="http://www.w3.org/1999/xlink" x="0px" y="0px"
	 viewBox="0 0 283.5 283.5" style="enable-background:new 0 0 283.5 283.5;" xml:space="preserve">
<style type="text/css">
	.st0{fill:#FFFFFF;}
</style>
<g>
	<g>
		<path class="st0" d="M276.1,134.1C276.1,134.1,276.1,134.1,276.1,134.1l-56.1-55.9c-4.2-4.2-11-4.2-15.2,0c-4.2,4.2-4.2,11,0,15.2
			l37.7,37.5H15c-5.9,0-10.7,4.8-10.7,10.7c0,5.9,4.8,10.7,10.7,10.7h227.5L204.8,190c-4.2,4.2-4.2,11,0,15.2c4.2,4.2,11,4.2,15.2,0
			l56.1-55.9c0,0,0,0,0,0C280.3,145.1,280.3,138.3,276.1,134.1z"/>
	</g>
</g>
</svg>
