<?xml version="1.0" encoding="utf-8"?>
<!-- Generator: Adobe Illustrator 25.3.1, SVG Export Plug-In . SVG Version: 6.00 Build 0)  -->
<svg version="1.1" id="Capa_1" xmlns="http://www.w3.org/2000/svg" xmlns:xlink="http://www.w3.org/1999/xlink" x="0px" y="0px"
	 viewBox="0 0 283.5 283.5" style="enable-background:new 0 0 283.5 283.5;" xml:space="preserve">
<style type="text/css">
	.st0{fill:#FFFFFF;}
</style>
<path class="st0" d="M271.5,70.4c-3.1-11.6-12.3-20.8-23.9-23.9c-21.2-5.8-106.2-5.8-106.2-5.8s-84.9,0-106.2,5.6
	c-11.4,3.1-20.8,12.5-23.9,24.1c-5.6,21.2-5.6,65.3-5.6,65.3s0,44.3,5.6,65.3c3.1,11.6,12.3,20.8,23.9,23.9
	c21.5,5.8,106.2,5.8,106.2,5.8s84.9,0,106.2-5.6c11.6-3.1,20.8-12.3,23.9-23.9c5.6-21.2,5.6-65.3,5.6-65.3S277.3,91.7,271.5,70.4z
	 M114.4,176.4V95l70.6,40.7L114.4,176.4z"/>
</svg>
