<?xml version="1.0" encoding="utf-8"?>
<!-- Generator: Adobe Illustrator 25.3.1, SVG Export Plug-In . SVG Version: 6.00 Build 0)  -->
<svg version="1.1" id="Capa_1" xmlns="http://www.w3.org/2000/svg" xmlns:xlink="http://www.w3.org/1999/xlink" x="0px" y="0px"
	 viewBox="0 0 283.5 283.5" style="enable-background:new 0 0 283.5 283.5;" xml:space="preserve">
<style type="text/css">
	.st0{fill:#FFFFFF;}
</style>
<path class="st0" d="M141.7,261.6c-3.8,0-7.5-1.4-10.4-3.9c-10.9-9.5-21.4-18.5-30.7-26.4l0,0c-27.2-23.2-50.7-43.2-67-62.9
	c-18.3-22-26.8-42.9-26.8-65.8c0-22.2,7.6-42.7,21.4-57.6c14-15.2,33.2-23.5,54-23.5c15.6,0,29.9,4.9,42.4,14.6
	c6.3,4.9,12.1,10.9,17.2,17.9c5.1-7,10.8-13,17.2-17.9c12.6-9.7,26.8-14.6,42.4-14.6c20.9,0,40,8.3,54,23.5
	c13.8,15,21.4,35.4,21.4,57.6c0,22.8-8.5,43.7-26.8,65.8c-16.3,19.7-39.8,39.7-67,62.9c-9.3,7.9-19.8,16.9-30.8,26.5
	C149.3,260.2,145.6,261.6,141.7,261.6z"/>
</svg>
