<?xml version="1.0" encoding="utf-8"?>
<!-- Generator: Adobe Illustrator 25.3.1, SVG Export Plug-In . SVG Version: 6.00 Build 0)  -->
<svg version="1.1" id="Capa_1" xmlns="http://www.w3.org/2000/svg" xmlns:xlink="http://www.w3.org/1999/xlink" x="0px" y="0px"
	 viewBox="0 0 283.5 283.5" style="enable-background:new 0 0 283.5 283.5;" xml:space="preserve">
<style type="text/css">
	.st0{fill:#FFFFFF;}
</style>
<path class="st0" d="M116.6,228.6h50.7c2.9,0,5.3-2.4,5.3-5.3s-2.4-5.3-5.3-5.3h-50.7c-2.9,0-5.3,2.4-5.3,5.3
	S113.7,228.6,116.6,228.6z M183,239h-82.1c-2.9,0-5.3,2.4-5.3,5.3s2.4,5.3,5.3,5.3H183c2.9,0,5.3-2.4,5.3-5.3S185.9,239,183,239z
	 M141.9,43c2.9,0,5.3-2.4,5.3-5.3v-5.3c0-2.9-2.4-5.3-5.3-5.3c-2.9,0-5.3,2.4-5.3,5.3v5.3C136.6,40.6,139,43,141.9,43z M141.9,153.1
	c-2.9,0-5.3,2.4-5.3,5.3v5.3c0,2.9,2.4,5.3,5.3,5.3c2.9,0,5.3-2.3,5.3-5.3v-5.3C147.2,155.5,144.8,153.1,141.9,153.1z M184.6,60.6
	c1.4,0,2.7-0.5,3.7-1.5l8.9-8.9c2.1-2,2.1-5.3,0-7.4c-2-2.1-5.3-2.1-7.4,0l-8.9,8.9c-2.1,2-2.1,5.3,0,7.4
	C181.9,60.1,183.3,60.6,184.6,60.6z M95.5,137.1l-8.9,8.9c-2.1,2-2.1,5.3,0,7.4c1,1,2.4,1.5,3.7,1.5c1.4,0,2.7-0.5,3.7-1.5l8.9-8.9
	c2.1-2,2.1-5.3,0-7.4C100.9,135,97.6,135,95.5,137.1z M86.9,98c0-2.9-2.4-5.3-5.3-5.3h-5.3c-2.9,0-5.3,2.4-5.3,5.3s2.4,5.3,5.3,5.3
	h5.3C84.5,103.3,86.8,101,86.9,98z M207.6,92.7h-5.3c-2.9,0-5.3,2.4-5.3,5.3s2.4,5.3,5.3,5.3h5.3c2.9,0,5.3-2.3,5.3-5.3
	C212.9,95.1,210.5,92.7,207.6,92.7z M188.3,137.1c-2-2.1-5.3-2.1-7.4,0c-2.1,2-2.1,5.3,0,7.4l8.9,8.9c1,1,2.4,1.5,3.7,1.5
	c1.4,0,2.7-0.5,3.7-1.5c2.1-2,2.1-5.3,0-7.4L188.3,137.1z M95.6,59.1c1,1,2.4,1.5,3.7,1.5s2.6-0.5,3.7-1.5c2.1-2,2.1-5.3,0-7.4
	l-8.9-8.9c-2-2.1-5.3-2.1-7.4,0c-2.1,2-2.1,5.3,0,7.4L95.6,59.1z M168.2,109.6L179.9,97c2.1-2.3,2.9-5.7,1.9-8.7s-3.6-5.3-6.7-5.9
	l-16.9-3.3l-8.4-15c-1.6-2.8-4.5-4.5-7.7-4.5c-3.2,0-6.1,1.7-7.7,4.5l-8.4,15l-16.9,3.3c-3.2,0.6-5.7,2.9-6.7,5.9s-0.3,6.4,1.9,8.7
	l11.7,12.6l-2.1,17c-0.3,3.2,1,6.3,3.6,8.2c1.6,1.1,3.4,1.7,5.2,1.7c1.2,0,2.5-0.2,3.9-0.8l15.6-7.2l15.6,7.2c2.9,1.3,6.3,1,8.9-0.9
	c2.6-1.9,4-5,3.6-8.2L168.2,109.6z M158.5,104.3c-1.1,1.1-1.6,2.7-1.4,4.2l2,16.4l-15-7c-0.7-0.3-1.4-0.5-2.2-0.5
	c-0.7,0-1.5,0.2-2,0.5l-15,7l2-16.4c0.2-1.5-0.3-3.1-1.4-4.2l-11.3-12.1l16.2-3.2c1.5-0.3,2.8-1.2,3.6-2.6l8-14.5l8,14.5
	c0.8,1.4,2.1,2.3,3.6,2.6l16.2,3.2L158.5,104.3z M276.3,103c0-12.8-10.4-23.2-23.3-23.2h-1.4V25.4c0-10.1-8.2-18.3-18.3-18.3H50.1
	c-10.1,0-18.3,8.2-18.3,18.3v54.4h-1.4C17.6,79.8,7.2,90.2,7.2,103v150c0,12.8,10.4,23.3,23.3,23.3H253c12.8,0,23.3-10.4,23.3-23.3
	v-51.2c0-2.9-2.4-5.3-5.3-5.3c-2.9,0-5.3,2.4-5.3,5.3v33.8L199,175l66.7-55.1v34.5c0,2.9,2.4,5.3,5.3,5.3c2.9,0,5.3-2.4,5.3-5.3V103
	z M17.7,103c0-7,5.7-12.7,12.7-12.7h1.4v27.5l-14.1-11.7V103z M17.7,119.8l66.7,55.1l-66.7,60.6V119.8z M265.8,249.8v3.3
	c0,7-5.7,12.7-12.7,12.7H30.4c-7,0-12.7-5.7-12.7-12.7v-3.3l74.9-68.1l30.9,25.5c0.9,0.8,2.1,1.2,3.3,1.2h29.8
	c1.2,0,2.4-0.4,3.3-1.2l30.9-25.5L265.8,249.8z M241.1,126.5l-86.4,71.4h-26l-86.4-71.4V25.4c0-4.3,3.5-7.7,7.7-7.7h183.4
	c4.3,0,7.7,3.5,7.7,7.7V126.5z M265.8,106.1l-14.1,11.7V90.3h1.4c7,0,12.7,5.7,12.7,12.7V106.1z M273.8,173.4
	c-1.9-1.1-4.5-1-6.2,0.5c-1.6,1.4-2.2,3.8-1.5,5.8c0.7,2.1,2.7,3.5,4.9,3.5c2.5,0,4.7-1.8,5.2-4.3
	C276.6,176.8,275.6,174.5,273.8,173.4z"/>
</svg>
