<?xml version="1.0" encoding="utf-8"?>
<!-- Generator: Adobe Illustrator 25.3.1, SVG Export Plug-In . SVG Version: 6.00 Build 0)  -->
<svg version="1.1" id="Capa_1" xmlns="http://www.w3.org/2000/svg" xmlns:xlink="http://www.w3.org/1999/xlink" x="0px" y="0px"
	 viewBox="0 0 283.5 283.5" style="enable-background:new 0 0 283.5 283.5;" xml:space="preserve">
<style type="text/css">
	.st0{fill:#FFFFFF;}
</style>
<g>
	<g>
		<path class="st0" d="M278.7,56.8c-10.2,4.5-21,7.4-32.4,8.9c11.6-7,20.5-17.9,24.7-31c-10.9,6.5-22.8,11-35.6,13.6
			c-10.3-11-25-17.8-41-17.8c-31.1,0-56.1,25.2-56.1,56.2c0,4.5,0.4,8.7,1.3,12.8c-46.7-2.3-88-24.7-115.8-58.8
			c-4.8,8.4-7.7,18-7.7,28.4c0,19.5,10,36.7,25,46.7c-9-0.2-17.9-2.8-25.4-6.9c0,0.2,0,0.4,0,0.6c0,27.3,19.5,50,45,55.2
			c-4.6,1.3-9.6,1.8-14.7,1.8c-3.6,0-7.2-0.2-10.6-1c7.3,22.2,27.9,38.6,52.5,39.1c-19.1,15-43.4,24-69.6,24c-4.6,0-9-0.2-13.4-0.8
			c24.9,16,54.4,25.2,86.2,25.2C194.5,253,251,167.4,251,93.2c0-2.5-0.1-4.9-0.2-7.3C261.7,78,271.1,68.1,278.7,56.8z"/>
	</g>
</g>
</svg>
