<?xml version="1.0" encoding="utf-8"?>
<!-- Generator: Adobe Illustrator 25.3.1, SVG Export Plug-In . SVG Version: 6.00 Build 0)  -->
<svg version="1.1" id="Capa_1" xmlns="http://www.w3.org/2000/svg" xmlns:xlink="http://www.w3.org/1999/xlink" x="0px" y="0px"
	 viewBox="0 0 283.5 283.5" style="enable-background:new 0 0 283.5 283.5;" xml:space="preserve">
<style type="text/css">
	.st0{fill:#FFFFFF;}
</style>
<path class="st0" d="M268.5,152.9H14.9c-6.4,0-11.5-5.2-11.5-11.5s5.2-11.5,11.5-11.5h253.6c6.4,0,11.5,5.2,11.5,11.5
	S274.9,152.9,268.5,152.9z"/>
<path class="st0" d="M268.5,64.5H14.9C8.6,64.5,3.4,59.4,3.4,53s5.2-11.5,11.5-11.5h253.6c6.4,0,11.5,5.2,11.5,11.5
	S274.9,64.5,268.5,64.5z"/>
<path class="st0" d="M268.5,241.3H14.9c-6.4,0-11.5-5.2-11.5-11.5s5.2-11.5,11.5-11.5h253.6c6.4,0,11.5,5.2,11.5,11.5
	S274.9,241.3,268.5,241.3z"/>
</svg>
